<svg xmlns="http://www.w3.org/2000/svg" width="494.891" height="169.99" style="fill:#000; stroke:#2657eb;" ><g data-name="Grupo 31" fill="#fb7043"><path data-name="Trazado 96" d="M210.752 123.328a10.387 10.387 0 00-8.543 3.943h-.658l-.657-2.63-.657-.657h-4.6l-.657.657v44.69l.657.658h5.258l.657-.658v-15.772h.658a10.387 10.387 0 008.543 3.943c9.2 0 14.459-7.229 14.459-17.087s-5.259-17.087-14.46-17.087zm-.657 28.26c-5.258 0-8.544-3.287-8.544-11.173s3.286-11.173 8.544-11.173 8.543 3.943 8.543 11.173-3.285 11.174-8.543 11.174z"/><path data-name="Trazado 97" d="M252.152 123.982l-.657.657v15.774c0 7.887-3.286 11.173-7.886 11.173-5.258 0-6.573-3.944-6.573-7.887v-19.06l-.657-.657h-5.258l-.657.657v19.06c0 7.23 3.285 13.8 12.486 13.8a9.857 9.857 0 007.887-3.943h.658l.657 2.628.657.658h4.6l.657-.658v-31.547l-.657-.657z"/><path data-name="Trazado 98" d="M244.266 120.041l1.315-.656 7.228-6.572v-1.314l-.657-.658h-4.6l-1.315.658-5.915 6.571v1.315l.657.656z"/><path data-name="Trazado 99" d="M281.724 123.327a10.388 10.388 0 00-8.544 3.943h-.657v-15.773l-.658-.657h-5.254l-.657.657v44.69l.657.658h4.6l.657-.658.658-2.628h.657a10.387 10.387 0 008.544 3.944c8.544 0 14.459-7.23 14.459-17.088-.003-10.517-5.918-17.088-14.462-17.088zm-.657 28.259c-5.258 0-8.543-3.285-8.543-11.172s3.286-11.173 8.543-11.173 8.543 3.943 8.543 11.173-3.285 11.172-8.543 11.172z"/><path data-name="Trazado 100" d="M302.748 110.84l-.657.658v44.69l.657.657h5.258l.658-.657v-44.69l-.658-.658z"/><path data-name="Trazado 101" d="M317.207 123.982l-.657.657v31.547l.657.658h5.258l.657-.658v-31.547l-.657-.657z"/><path data-name="Trazado 102" d="M317.207 112.154l-.657.657v5.257l.657.658h5.258l.657-.658v-5.257l-.657-.657z"/><path data-name="Trazado 103" d="M344.808 129.243c5.258 0 7.229 2.628 7.886 5.257l.658.657h5.257l.658-.657c-.658-5.915-5.258-11.172-14.459-11.172-9.858 0-15.773 6.571-15.773 17.087s5.915 17.087 15.773 17.087c9.2 0 13.8-5.257 14.459-11.173l-.658-.657h-5.257l-.658.657c-.657 2.629-2.628 5.259-7.886 5.259-5.915 0-9.2-3.944-9.2-11.173s3.285-11.172 9.2-11.172z"/><path data-name="Trazado 104" d="M370.576 124.641l-.411.657v5.258l.411.656h13.548v5.374l-.542.542a27.125 27.125 0 00-5.915-.657c-8.544 0-14.459 3.285-14.459 10.515 0 6.572 3.943 10.516 11.173 10.516 6.572 0 9.2-3.943 9.2-3.943h.542v3.286l.657.657h5.258l.657-.657v-31.55l-.41-.657zm5.119 26.945c-3.943 0-5.916-1.314-5.916-4.6s2.63-5.258 8.544-5.258a18.2 18.2 0 015.258.657l.542.543v3.308c-.614 3.255-3.736 5.35-8.428 5.35z"/><path data-name="Trazado 105" d="M200.894 102.085l.657-.657V69.881l-.657-.657h-5.258l-.657.657v31.547l.657.657z"/><path data-name="Trazado 106" d="M200.894 63.963l.657-.657v-5.258l-.657-.657h-5.258l-.657.657v5.258l.657.657z"/><path data-name="Trazado 107" d="M294.209 68.565c-9.858 0-15.773 6.573-15.773 17.088s5.915 17.087 15.773 17.087 15.774-6.572 15.774-17.087-5.912-17.088-15.774-17.088zm0 28.26c-5.915 0-9.2-3.944-9.2-11.172s3.286-11.174 9.2-11.174 9.2 3.944 9.2 11.174-3.285 11.171-9.2 11.171z"/><path data-name="Trazado 108" d="M332.325 101.425l11.173-26.946v-4.6l-.658-.657h-3.943l-.657.657-9.2 23h-.657l-9.2-23-.658-.657h-3.943l-.657.657v4.6l11.173 26.946.657.657h5.915z"/><path data-name="Trazado 109" d="M396.064 74.479c5.258 0 7.23 2.63 7.886 5.259l.658.656h5.257l.658-.656c-.658-5.916-5.258-11.173-14.459-11.173-9.858 0-15.773 6.573-15.773 17.088s5.915 17.087 15.773 17.087c9.2 0 13.8-5.257 14.459-11.171l-.658-.659h-5.257l-.658.659c-.657 2.628-2.628 5.256-7.886 5.256-5.915 0-9.2-3.944-9.2-11.172s3.289-11.174 9.2-11.174z"/><path data-name="Trazado 110" d="M417.095 69.222l-.657.657v31.547l.657.657h5.258l.658-.657V69.879l-.658-.657z"/><path data-name="Trazado 111" d="M417.095 57.391l-.657.657v5.258l.657.657h5.258l.658-.657v-5.258l-.658-.657z"/><path data-name="Trazado 112" d="M444.696 68.565c-9.858 0-15.773 6.573-15.773 17.088s5.915 17.087 15.773 17.087 15.774-6.572 15.774-17.087-5.916-17.088-15.774-17.088zm0 28.26c-5.915 0-9.2-3.944-9.2-11.172s3.286-11.174 9.2-11.174 9.2 3.944 9.2 11.174-3.285 11.171-9.2 11.171z"/><path data-name="Trazado 113" d="M440.096 64.621l.657.657h3.286l1.315-.657 7.229-6.571v-1.314l-.657-.658h-4.6l-1.315.658-5.915 6.572z"/><path data-name="Trazado 114" d="M215.101 102.085l.657-.657V75.796h15.615v25.632l.657.657h5.258l.657-.657V69.882l-.575-.657h-27.61l-.575.657v31.547l.657.657z"/><path data-name="Trazado 115" d="M267.517 101.75h5.258l.657-.657V69.55l-.575-.657h-27.609l-.575.657v31.546l.657.657h5.258l.657-.657V75.465h15.615v25.631z"/><path data-name="Trazado 116" d="M494.891 69.55l-.575-.657h-27.609l-.575.657v31.546l.657.657h5.257l.657-.657V75.465h15.616v25.631l.657.657h5.258l.657-.657V74.808z"/><path data-name="Trazado 117" d="M354.452 69.878v5.258l.411.657h13.548v5.373l-.543.542a27.164 27.164 0 00-5.915-.656c-8.544 0-14.459 3.285-14.459 10.516 0 6.571 3.943 10.515 11.173 10.515 6.572 0 9.2-3.944 9.2-3.944h.543v3.286l.657.658h5.258l.657-.658V69.878l-.41-.657h-19.71zm5.529 26.289c-3.943 0-5.916-1.315-5.916-4.6s2.63-5.259 8.544-5.259a18.175 18.175 0 015.258.658l.543.543v3.307c-.615 3.255-3.739 5.351-8.428 5.351z"/><path data-name="Trazado 118" d="M200.894 47.319l.657-.658V15.115l-.657-.657h-5.258l-.657.657v31.546l.657.658z"/><path data-name="Trazado 119" d="M257.407 47.976a10.387 10.387 0 008.544-3.943h.657l.658 2.628.657.659h4.6l.657-.659V1.971l-.657-.656h-5.258l-.658.656v15.774h-.657a10.387 10.387 0 00-8.544-3.944c-9.2 0-14.459 7.23-14.459 17.088s5.26 17.087 14.46 17.087zm.657-28.26c5.258 0 8.544 3.286 8.544 11.173s-3.286 11.172-8.544 11.172-8.544-3.944-8.544-11.172 3.287-11.173 8.546-11.173z"/><path data-name="Trazado 120" d="M286.978 9.202l.658-.658V3.287l-.658-.658h-5.258l-.657.658v5.257l.657.658z"/><path data-name="Trazado 121" d="M286.978 47.319l.658-.658V15.115l-.658-.657h-5.258l-.657.657v31.546l.657.658z"/><path data-name="Trazado 122" d="M309.322 47.977c9.2 0 13.8-5.257 14.459-11.173l-.657-.657h-5.258l-.658.657c-.657 2.629-2.628 5.258-7.886 5.258-5.915 0-9.2-3.944-9.2-11.172s3.286-11.173 9.2-11.173c5.258 0 7.23 2.63 7.886 5.258l.658.657h5.258l.657-.657c-.657-5.914-5.258-11.172-14.459-11.172-9.858 0-15.773 6.572-15.773 17.087s5.915 17.087 15.773 17.087z"/><path data-name="Trazado 123" d="M343.493 47.977c7.886 0 12.487-4.6 13.144-9.858l-.657-.657h-5.258l-.657.657c-1.315 3.287-3.943 3.944-6.573 3.944-7.887 0-8.543-6.573-8.543-7.887l.657-.656h21.689l.657-.658v-1.971c0-9.2-4.6-17.087-15.116-17.087S327.72 21.69 327.72 30.891c0 9.856 5.258 17.086 15.773 17.086zm-.657-28.26c7.229 0 7.886 5.915 7.886 7.887l-.657.657h-14.459l-.657-.657c.001-1.973.657-7.887 7.887-7.887z"/><path data-name="Trazado 124" d="M393.437 47.976a10.387 10.387 0 008.543-3.943h.657l.658 2.628.657.659h4.6l.658-.659V1.971l-.658-.656h-5.257l-.658.656v15.774h-.657a10.386 10.386 0 00-8.543-3.944c-9.2 0-14.459 7.23-14.459 17.088s5.258 17.087 14.459 17.087zm.657-28.26c5.258 0 8.543 3.286 8.543 11.173s-3.285 11.172-8.543 11.172-8.544-3.944-8.544-11.172 3.286-11.173 8.544-11.173z"/><path data-name="Trazado 125" d="M430.894 47.977c7.886 0 12.488-4.6 13.144-9.858l-.657-.657h-5.257l-.657.657c-1.315 3.287-3.943 3.944-6.573 3.944-7.886 0-8.543-6.573-8.543-7.887l.657-.656h21.688l.658-.658v-1.971c0-9.2-4.6-17.087-15.116-17.087s-15.116 7.886-15.116 17.087c-.001 9.856 5.257 17.086 15.772 17.086zm-.657-28.26c7.23 0 7.886 5.915 7.886 7.887l-.657.657h-14.459l-.657-.657c.001-1.973.658-7.887 7.887-7.887z"/><path data-name="Trazado 126" d="M215.101 47.32l.657-.658V21.03h15.615v25.632l.657.658h5.258l.657-.658V15.116l-.575-.657h-27.61l-.575.657v31.546l.657.658z"/><path data-name="Trazado 127" d="M199.251 9.201l1.315-.657 7.229-6.572V.658L207.138 0h-4.6l-1.314.658-5.915 6.571v1.315l.657.657z"/><path data-name="Trazado 128" d="M81.723 78.119v-5.208h-2.4l-7.57 5.208z"/><path data-name="Trazado 129" d="M57.038 88.248h24.688v-5.209H64.611z"/><g data-name="Grupo 29"><path data-name="Trazado 130" d="M0 2.222v5h13.32z"/><path data-name="Trazado 131" d="M26.428 12.142H.001v5.208h40.306z"/><path data-name="Trazado 132" d="M60.428 24.898l-7.013-2.632H.001v5.208H65.83a34.848 34.848 0 00-5.402-2.576z"/><path data-name="Trazado 133" d="M72.284 32.398H0v5.208h76.612a32.224 32.224 0 00-4.328-5.208z"/><path data-name="Trazado 134" d="M79.275 42.526H0v5.208h80.972a30.18 30.18 0 00-1.697-5.208z"/><path data-name="Trazado 135" d="M81.728 54.354c0-.57-.022-1.136-.054-1.7H.005v1.75a27.967 27.967 0 00.217 3.458h81.506z"/><path data-name="Trazado 136" d="M81.725 65.438v-2.656H1.289a28.773 28.773 0 002.205 5.208h74.522z"/><path data-name="Trazado 137" d="M70.866 72.91H6.872a30.981 30.981 0 005.638 5.209h50.786z"/><path data-name="Trazado 138" d="M56.147 83.038H19.626l7.57 5.209h21.382z"/><path data-name="Trazado 139" d="M41.428 93.167h-7.084l3.542 2.437z"/></g><path data-name="Trazado 140" d="M81.723 93.167H49.889l-7.57 5.209h39.4z"/><path data-name="Trazado 141" d="M81.723 103.294H35.17l-7.569 5.208h54.122z"/><path data-name="Trazado 142" d="M140.126 108.506l-7.57-5.208h-5.443l-7.57 5.208z"/><path data-name="Trazado 143" d="M81.723 113.422H22.16a23.422 23.422 0 00-3.234 5.208h62.792z"/><path data-name="Trazado 144" d="M104.825 118.632h43.971a23.43 23.43 0 00-3.234-5.208h-33.167z"/><path data-name="Trazado 145" d="M81.666 123.55h-64.31a22.182 22.182 0 00-.421 4.286v.922h64.754c.011-.294.034-.586.034-.882v-4.327z"/><path data-name="Trazado 146" d="M90.106 128.758h60.685v-.922a22.24 22.24 0 00-.42-4.286H97.678z"/><g data-name="Grupo 30"><path data-name="Trazado 147" d="M154.406 7.222h13.32v-5z"/><path data-name="Trazado 148" d="M127.42 17.349h40.307v-5.208h-26.428z"/><path data-name="Trazado 149" d="M107.299 24.898a34.882 34.882 0 00-5.4 2.576h65.829v-5.208h-53.414z"/><path data-name="Trazado 150" d="M91.115 37.606h76.612v-5.208H95.441a32.172 32.172 0 00-4.326 5.208z"/><path data-name="Trazado 151" d="M86.756 47.734h80.973v-5.208H88.453a30.18 30.18 0 00-1.697 5.208z"/><path data-name="Trazado 152" d="M86.003 54.354v3.509h81.507a27.92 27.92 0 00.217-3.458v-1.75H86.058a29.01 29.01 0 00-.055 1.699z"/><path data-name="Trazado 153" d="M86.003 65.446v2.545h78.231a28.856 28.856 0 002.2-5.208H85.998z"/><path data-name="Trazado 154" d="M86.003 78.12h69.213a30.952 30.952 0 005.639-5.209H86.003z"/><path data-name="Trazado 155" d="M86.004 88.247h54.527l7.57-5.209h-62.1z"/><path data-name="Trazado 156" d="M86.004 98.376h39.809l4.023-2.769 3.547-2.44H86.005z"/><path data-name="Trazado 157" d="M86.004 108.506h25.09l7.57-5.208h-32.66z"/><path data-name="Trazado 158" d="M96.373 118.633l7.569-5.208H86.001v5.208z"/><path data-name="Trazado 159" d="M86.271 125.584l2.954-2.034h-3.169c.049.684.114 1.362.215 2.034z"/></g><path data-name="Trazado 160" d="M80.981 133.679H16.935v5.206h62.061a24.068 24.068 0 001.985-5.206z"/><path data-name="Trazado 161" d="M88.732 138.885h62.06v-5.208H86.747a24.082 24.082 0 001.985 5.208z"/><path data-name="Trazado 162" d="M75.624 143.811H16.935v5.209h52.461a26.339 26.339 0 006.228-5.209z"/><path data-name="Trazado 163" d="M98.33 149.016h52.461v-5.205H92.103a26.34 26.34 0 006.227 5.205z"/><path data-name="Trazado 164" d="M57.619 153.937H16.935v5.208H43.74z"/><path data-name="Trazado 165" d="M123.986 159.144h26.805v-5.207h-40.685z"/><path data-name="Trazado 166" d="M30.633 164.063h-13.7v5.141z"/><path data-name="Trazado 167" d="M150.796 169.204v-5.141h-13.7z"/></g></svg>