<?xml version="1.0" encoding="utf-8"?>
<!-- Generator: Adobe Illustrator 25.2.0, SVG Export Plug-In . SVG Version: 6.00 Build 0)  -->
<svg version="1.1" id="Capa_1" xmlns="http://www.w3.org/2000/svg" xmlns:xlink="http://www.w3.org/1999/xlink" x="0px" y="0px"
	 viewBox="0 0 996.4 830.3" style="enable-background:new 0 0 996.4 830.3;" xml:space="preserve">
<style type="text/css">
	.st0{enable-background:new    ;}
	.st1{fill:#333333;}
	.st2{fill:#FDA98E;stroke:#FDA98E;}
	.st3{fill:#EAEAEA;stroke:#EAEAEA;}
	.st4{fill:#FF7043;stroke:#FF7043;}
	.st5{fill:#FDC6B3;stroke:#FDC6B3;}
	.st6{fill:#FEE2D9;stroke:#FEE2D9;}
	.st7{fill:#FC8C68;stroke:#FC8C68;}
	.st8{fill:none;stroke:#B4B4B4;stroke-width:4;stroke-linecap:round;}
</style>
<g id="Grupo_2157" transform="translate(-708.614 -1866.5)">
	<g class="st0">
		<path class="st1" d="M987.7,2004.4c-0.3-0.1-0.6-0.1-0.9-0.1c-0.8,0-1.4,0.2-1.8,0.7c-0.3,0.3-0.4,0.8-0.4,1.8v0.4h3.6v2.6h-3.6v9
			h-3.1v-9h-3v-2.6h3v-0.5c0-1.9,0.4-3,1.2-3.8s2-1.4,3.6-1.4c0.6,0,1.2,0,1.8,0.2L987.7,2004.4z"/>
		<path class="st1" d="M1001.6,2007.2v11.6h-3v-0.9c-0.9,0.8-2,1.2-3.1,1.2c-1.6,0-3-0.7-4-1.9c-0.7-0.9-1.2-2.1-1.2-3.8v-6.2h3.1
			v6.3c0,1.1,0.2,1.6,0.6,2c0.5,0.5,1.2,0.7,1.8,0.7c1.3,0,2.3-0.9,2.7-1.4v-7.6H1001.6z"/>
		<path class="st1" d="M1015.2,2017c-1.1,1.3-3,2.1-4.8,2.1c-3.5,0-6.1-2.4-6.1-6c0-3.2,2.2-6.1,5.7-6.1c3.2,0,5.5,2.7,5.5,6
			c0,0.3,0,0.6-0.1,0.9h-8.1c0.2,1.6,1.5,2.8,3.1,2.8c1.3,0,2.4-0.7,2.9-1.3L1015.2,2017z M1012.2,2011.5c-0.1-1-1-2-2.3-2
			c-1.3,0-2.4,1-2.5,2H1012.2z"/>
		<path class="st1" d="M1025.2,2009.9c-0.2-0.1-0.7-0.1-1.1-0.1c-1.4,0-2.4,1-2.8,1.7v7.3h-3.1v-11.6h3v1.2c0.7-0.9,2-1.4,3.4-1.4
			c0.5,0,0.7,0,1.1,0.1L1025.2,2009.9z"/>
		<path class="st1" d="M1032.8,2006.9c3.5,0,6.2,2.7,6.2,6.1s-2.7,6-6.2,6s-6.2-2.7-6.2-6S1029.3,2006.9,1032.8,2006.9z
			 M1032.8,2016.2c1.8,0,3.1-1.4,3.1-3.2s-1.2-3.2-3.1-3.2s-3.1,1.4-3.1,3.2S1031,2016.2,1032.8,2016.2z"/>
		<path class="st1" d="M1041.6,2018.8v-11.6h3v0.9c0.9-0.7,2-1.2,3.3-1.2c1.6,0,3.1,0.7,4,1.9c0.8,0.9,1.2,2.1,1.2,4.1v5.9h-3.1
			v-6.2c0-1.2-0.3-1.8-0.7-2.2c-0.4-0.4-1-0.6-1.8-0.6c-1.3,0-2.4,0.8-2.8,1.4v7.6H1041.6z"/>
	</g>
	<g class="st0">
		<path class="st1" d="M988,2045.8v-0.9c-1,0.8-2.1,1.2-3.2,1.2c-1.7,0-3.4-0.8-4.4-2c-0.9-1.1-1.5-2.5-1.5-4.1
			c0-3.4,2.5-6.1,5.7-6.1c1.3,0,2.4,0.4,3.3,1.1v-6.2h3.1v17H988z M987.8,2038.3c-0.6-0.9-1.7-1.4-2.9-1.4c-1.8,0-3,1.5-3,3.2
			c0,1.8,1.3,3.2,3.1,3.2c1.2,0,2.2-0.6,2.8-1.4V2038.3z"/>
		<path class="st1" d="M996.1,2028.1c1.1,0,2,0.9,2,2s-0.9,2-2,2s-2-0.9-2-2S995,2028.1,996.1,2028.1z M997.7,2045.8h-3.1v-11.6h3.1
			V2045.8z"/>
		<path class="st1" d="M1001.6,2042.3c0.8,0.7,2,1.2,3.2,1.2c0.8,0,1.5-0.4,1.5-1c0-1.8-5.6-1.1-5.6-4.9c0-2.2,2.2-3.6,4.5-3.6
			c1.5,0,3.2,0.6,3.9,1.2l-1.5,2.3c-0.6-0.4-1.4-0.8-2.2-0.8c-0.9,0-1.6,0.3-1.6,0.9c0,1.5,5.6,0.9,5.6,4.9c0,2.2-2.2,3.6-4.6,3.6
			c-1.6,0-3.3-0.6-4.7-1.6L1001.6,2042.3z"/>
		<path class="st1" d="M1022.2,2044c-1.1,1.3-3,2.1-4.8,2.1c-3.5,0-6.1-2.4-6.1-6c0-3.2,2.2-6.1,5.7-6.1c3.2,0,5.5,2.7,5.5,6
			c0,0.3,0,0.6-0.1,0.9h-8.1c0.2,1.6,1.5,2.8,3.1,2.8c1.3,0,2.4-0.7,2.9-1.3L1022.2,2044z M1019.3,2038.5c-0.1-1-1-2-2.3-2
			c-1.3,0-2.4,1-2.5,2H1019.3z"/>
		<path class="st1" d="M1025.2,2045.8v-11.6h3v0.9c0.9-0.7,2-1.2,3.3-1.2c1.6,0,3.1,0.7,4,1.9c0.8,0.9,1.2,2.1,1.2,4.1v5.9h-3.1
			v-6.2c0-1.2-0.3-1.8-0.7-2.2c-0.4-0.4-1-0.6-1.8-0.6c-1.3,0-2.4,0.8-2.8,1.4v7.6H1025.2z M1035.4,2028.9c0,1.7-0.9,3.2-2.7,3.2
			c-1.4,0-2.5-1.2-3.6-1.2c-0.6,0-0.9,0.5-1,1.2l-1.9-0.4c0-1.7,0.9-3.2,2.7-3.2c1.4,0,2.5,1.2,3.6,1.2c0.6,0,0.9-0.5,1-1.2
			L1035.4,2028.9z"/>
		<path class="st1" d="M1051.2,2045.8h-3v-0.9c-1,0.8-2.1,1.2-3.2,1.2c-1.7,0-3.4-0.8-4.4-2c-0.9-1.1-1.5-2.5-1.5-4.1
			c0-3.4,2.5-6.1,5.7-6.1c1.3,0,2.5,0.4,3.4,1.2v-0.9h3V2045.8z M1048.1,2038.3c-0.6-0.9-1.7-1.4-2.9-1.4c-1.8,0-3,1.5-3,3.2
			c0,1.8,1.3,3.2,3.1,3.2c1.2,0,2.2-0.6,2.8-1.4V2038.3z"/>
		<path class="st1" d="M1063,2045.8v-0.9c-1,0.8-2.1,1.2-3.2,1.2c-1.7,0-3.4-0.8-4.4-2c-0.9-1.1-1.5-2.5-1.5-4.1
			c0-3.4,2.5-6.1,5.7-6.1c1.3,0,2.4,0.4,3.3,1.1v-6.2h3.1v17H1063z M1062.8,2038.3c-0.6-0.9-1.7-1.4-2.9-1.4c-1.8,0-3,1.5-3,3.2
			c0,1.8,1.3,3.2,3.1,3.2c1.2,0,2.2-0.6,2.8-1.4V2038.3z"/>
		<path class="st1" d="M1080.7,2045.8h-3v-0.9c-1,0.8-2.1,1.2-3.2,1.2c-1.7,0-3.4-0.8-4.4-2c-0.9-1.1-1.5-2.5-1.5-4.1
			c0-3.4,2.5-6.1,5.7-6.1c1.3,0,2.5,0.4,3.4,1.2v-0.9h3V2045.8z M1077.6,2038.3c-0.6-0.9-1.7-1.4-2.9-1.4c-1.8,0-3,1.5-3,3.2
			c0,1.8,1.3,3.2,3.1,3.2c1.2,0,2.2-0.6,2.8-1.4V2038.3z"/>
		<path class="st1" d="M1084.7,2042.3c0.8,0.7,2,1.2,3.2,1.2c0.8,0,1.5-0.4,1.5-1c0-1.8-5.6-1.1-5.6-4.9c0-2.2,2.2-3.6,4.5-3.6
			c1.5,0,3.2,0.6,3.9,1.2l-1.5,2.3c-0.6-0.4-1.4-0.8-2.2-0.8c-0.9,0-1.6,0.3-1.6,0.9c0,1.5,5.6,0.9,5.6,4.9c0,2.2-2.2,3.6-4.6,3.6
			c-1.6,0-3.3-0.6-4.7-1.6L1084.7,2042.3z"/>
	</g>
	<g class="st0">
		<path class="st1" d="M1518.7,2004.4c-0.3-0.1-0.6-0.1-0.9-0.1c-0.8,0-1.4,0.2-1.8,0.7c-0.3,0.3-0.4,0.8-0.4,1.8v0.4h3.6v2.6h-3.6
			v9h-3.1v-9h-3v-2.6h3v-0.5c0-1.9,0.4-3,1.2-3.8s2-1.4,3.6-1.4c0.6,0,1.2,0,1.8,0.2L1518.7,2004.4z"/>
		<path class="st1" d="M1532.6,2007.2v11.6h-3v-0.9c-0.9,0.8-2,1.2-3.1,1.2c-1.6,0-3-0.7-4-1.9c-0.7-0.9-1.2-2.1-1.2-3.8v-6.2h3.1
			v6.3c0,1.1,0.2,1.6,0.6,2c0.5,0.5,1.2,0.7,1.8,0.7c1.3,0,2.3-0.9,2.7-1.4v-7.6H1532.6z"/>
		<path class="st1" d="M1546.2,2017c-1.1,1.3-3,2.1-4.8,2.1c-3.5,0-6.1-2.4-6.1-6c0-3.2,2.2-6.1,5.7-6.1c3.2,0,5.5,2.7,5.5,6
			c0,0.3,0,0.6-0.1,0.9h-8.1c0.2,1.6,1.5,2.8,3.1,2.8c1.3,0,2.4-0.7,2.9-1.3L1546.2,2017z M1543.2,2011.5c-0.1-1-1-2-2.3-2
			c-1.3,0-2.4,1-2.5,2H1543.2z"/>
		<path class="st1" d="M1556.2,2009.9c-0.2-0.1-0.7-0.1-1.1-0.1c-1.4,0-2.4,1-2.8,1.7v7.3h-3.1v-11.6h3v1.2c0.7-0.9,2-1.4,3.4-1.4
			c0.5,0,0.7,0,1.1,0.1L1556.2,2009.9z"/>
		<path class="st1" d="M1563.8,2006.9c3.5,0,6.2,2.7,6.2,6.1s-2.7,6-6.2,6s-6.2-2.7-6.2-6S1560.3,2006.9,1563.8,2006.9z
			 M1563.8,2016.2c1.8,0,3.1-1.4,3.1-3.2s-1.2-3.2-3.1-3.2s-3.1,1.4-3.1,3.2S1562,2016.2,1563.8,2016.2z"/>
		<path class="st1" d="M1572.6,2018.8v-11.6h3v0.9c0.9-0.7,2-1.2,3.3-1.2c1.6,0,3.1,0.7,4,1.9c0.8,0.9,1.2,2.1,1.2,4.1v5.9h-3.1
			v-6.2c0-1.2-0.3-1.8-0.7-2.2c-0.4-0.4-1-0.6-1.8-0.6c-1.3,0-2.4,0.8-2.8,1.4v7.6H1572.6z"/>
	</g>
	<g class="st0">
		<path class="st1" d="M1510.8,2034.2h3v0.9c0.9-0.7,2.1-1.2,3.4-1.2c3.2,0,5.7,2.6,5.7,6.1c0,1.6-0.6,3-1.5,4.1c-1,1.2-2.7,2-4.4,2
			c-1.2,0-2.2-0.3-3.1-1.1v6.6h-3.1V2034.2z M1513.9,2041.8c0.6,0.9,1.6,1.4,2.8,1.4c1.8,0,3.1-1.3,3.1-3.2c0-1.7-1.2-3.2-3-3.2
			c-1.2,0-2.2,0.6-2.9,1.4V2041.8z"/>
		<path class="st1" d="M1527.1,2028.1c1.1,0,2,0.9,2,2s-0.9,2-2,2s-2-0.9-2-2S1526,2028.1,1527.1,2028.1z M1528.7,2045.8h-3.1v-11.6
			h3.1V2045.8z"/>
		<path class="st1" d="M1535.4,2045.8h-3.1v-17h3.1V2045.8z"/>
		<path class="st1" d="M1544.2,2033.9c3.5,0,6.2,2.7,6.2,6.1s-2.7,6-6.2,6s-6.2-2.7-6.2-6S1540.7,2033.9,1544.2,2033.9z
			 M1544.2,2043.2c1.8,0,3.1-1.4,3.1-3.2s-1.2-3.2-3.1-3.2s-3.1,1.4-3.1,3.2S1542.4,2043.2,1544.2,2043.2z"/>
		<path class="st1" d="M1561.6,2045.8c-0.4,0.1-1.3,0.2-1.9,0.2c-1.9,0-3.2-0.6-4-1.7c-0.6-0.8-0.9-1.8-0.9-3.5v-4.1h-3.2v-2.6h3.2
			v-3.2h3.1v3.2h3.8v2.6h-3.8v4.4c0,0.7,0.1,1.2,0.4,1.5c0.3,0.4,0.8,0.6,1.6,0.6c0.5,0,1.1-0.1,1.3-0.1L1561.6,2045.8z"/>
		<path class="st1" d="M1574.3,2044c-1.1,1.3-3,2.1-4.8,2.1c-3.5,0-6.1-2.4-6.1-6c0-3.2,2.2-6.1,5.7-6.1c3.2,0,5.5,2.7,5.5,6
			c0,0.3,0,0.6-0.1,0.9h-8.1c0.2,1.6,1.5,2.8,3.1,2.8c1.3,0,2.4-0.7,2.9-1.3L1574.3,2044z M1571.4,2038.5c-0.1-1-1-2-2.3-2
			c-1.3,0-2.4,1-2.5,2H1571.4z"/>
		<path class="st1" d="M1588.6,2045.8h-3v-0.9c-1,0.8-2.1,1.2-3.2,1.2c-1.7,0-3.4-0.8-4.4-2c-0.9-1.1-1.5-2.5-1.5-4.1
			c0-3.4,2.5-6.1,5.7-6.1c1.3,0,2.5,0.4,3.4,1.2v-0.9h3V2045.8z M1585.5,2038.3c-0.6-0.9-1.7-1.4-2.9-1.4c-1.8,0-3,1.5-3,3.2
			c0,1.8,1.3,3.2,3.1,3.2c1.2,0,2.2-0.6,2.8-1.4V2038.3z"/>
		<path class="st1" d="M1600.3,2045.8v-0.9c-1,0.8-2.1,1.2-3.2,1.2c-1.7,0-3.4-0.8-4.4-2c-0.9-1.1-1.5-2.5-1.5-4.1
			c0-3.4,2.5-6.1,5.7-6.1c1.3,0,2.4,0.4,3.3,1.1v-6.2h3.1v17H1600.3z M1600.2,2038.3c-0.6-0.9-1.7-1.4-2.9-1.4c-1.8,0-3,1.5-3,3.2
			c0,1.8,1.3,3.2,3.1,3.2c1.2,0,2.2-0.6,2.8-1.4V2038.3z"/>
		<path class="st1" d="M1618.1,2045.8h-3v-0.9c-1,0.8-2.1,1.2-3.2,1.2c-1.7,0-3.4-0.8-4.4-2c-0.9-1.1-1.5-2.5-1.5-4.1
			c0-3.4,2.5-6.1,5.7-6.1c1.3,0,2.5,0.4,3.4,1.2v-0.9h3V2045.8z M1615,2038.3c-0.6-0.9-1.7-1.4-2.9-1.4c-1.8,0-3,1.5-3,3.2
			c0,1.8,1.3,3.2,3.1,3.2c1.2,0,2.2-0.6,2.8-1.4V2038.3z"/>
		<path class="st1" d="M1622.1,2042.3c0.8,0.7,2,1.2,3.2,1.2c0.8,0,1.5-0.4,1.5-1c0-1.8-5.6-1.1-5.6-4.9c0-2.2,2.2-3.6,4.5-3.6
			c1.5,0,3.2,0.6,3.9,1.2l-1.5,2.3c-0.6-0.4-1.4-0.8-2.2-0.8c-0.9,0-1.6,0.3-1.6,0.9c0,1.5,5.6,0.9,5.6,4.9c0,2.2-2.2,3.6-4.6,3.6
			c-1.6,0-3.3-0.6-4.7-1.6L1622.1,2042.3z"/>
	</g>
	<g class="st0">
		<path class="st1" d="M987.7,2297.4c-0.3-0.1-0.6-0.1-0.9-0.1c-0.8,0-1.4,0.2-1.8,0.7c-0.3,0.3-0.4,0.8-0.4,1.8v0.4h3.6v2.6h-3.6v9
			h-3.1v-9h-3v-2.6h3v-0.5c0-1.9,0.4-3,1.2-3.8s2-1.4,3.6-1.4c0.6,0,1.2,0,1.8,0.2L987.7,2297.4z"/>
		<path class="st1" d="M1001.6,2300.2v11.6h-3v-0.9c-0.9,0.8-2,1.2-3.1,1.2c-1.6,0-3-0.7-4-1.9c-0.7-0.9-1.2-2.1-1.2-3.8v-6.2h3.1
			v6.3c0,1.1,0.2,1.6,0.6,2c0.5,0.5,1.2,0.7,1.8,0.7c1.3,0,2.3-0.9,2.7-1.4v-7.6H1001.6z"/>
		<path class="st1" d="M1015.2,2310c-1.1,1.3-3,2.1-4.8,2.1c-3.5,0-6.1-2.4-6.1-6c0-3.2,2.2-6.1,5.7-6.1c3.2,0,5.5,2.7,5.5,6
			c0,0.3,0,0.6-0.1,0.9h-8.1c0.2,1.6,1.5,2.8,3.1,2.8c1.3,0,2.4-0.7,2.9-1.3L1015.2,2310z M1012.2,2304.5c-0.1-1-1-2-2.3-2
			c-1.3,0-2.4,1-2.5,2H1012.2z"/>
		<path class="st1" d="M1025.2,2302.9c-0.2-0.1-0.7-0.1-1.1-0.1c-1.4,0-2.4,1-2.8,1.7v7.3h-3.1v-11.6h3v1.2c0.7-0.9,2-1.4,3.4-1.4
			c0.5,0,0.7,0,1.1,0.1L1025.2,2302.9z"/>
		<path class="st1" d="M1032.8,2299.9c3.5,0,6.2,2.7,6.2,6.1s-2.7,6-6.2,6s-6.2-2.7-6.2-6S1029.3,2299.9,1032.8,2299.9z
			 M1032.8,2309.2c1.8,0,3.1-1.4,3.1-3.2s-1.2-3.2-3.1-3.2s-3.1,1.4-3.1,3.2S1031,2309.2,1032.8,2309.2z"/>
		<path class="st1" d="M1041.6,2311.8v-11.6h3v0.9c0.9-0.7,2-1.2,3.3-1.2c1.6,0,3.1,0.7,4,1.9c0.8,0.9,1.2,2.1,1.2,4.1v5.9h-3.1
			v-6.2c0-1.2-0.3-1.8-0.7-2.2c-0.4-0.4-1-0.6-1.8-0.6c-1.3,0-2.4,0.8-2.8,1.4v7.6H1041.6z"/>
	</g>
	<g class="st0">
		<path class="st1" d="M979.8,2327.2h3v0.9c0.9-0.7,2.1-1.2,3.4-1.2c3.2,0,5.7,2.6,5.7,6.1c0,1.6-0.6,3-1.5,4.1c-1,1.2-2.7,2-4.4,2
			c-1.2,0-2.2-0.3-3.1-1.1v6.6h-3.1V2327.2z M982.9,2334.8c0.6,0.9,1.6,1.4,2.8,1.4c1.8,0,3.1-1.3,3.1-3.2c0-1.7-1.2-3.2-3-3.2
			c-1.2,0-2.2,0.6-2.9,1.4V2334.8z"/>
		<path class="st1" d="M1001.6,2329.9c-0.2-0.1-0.7-0.1-1.1-0.1c-1.4,0-2.4,1-2.8,1.7v7.3h-3.1v-11.6h3v1.2c0.7-0.9,2-1.4,3.4-1.4
			c0.5,0,0.7,0,1.1,0.1L1001.6,2329.9z"/>
		<path class="st1" d="M1009.3,2326.9c3.5,0,6.2,2.7,6.2,6.1s-2.7,6-6.2,6s-6.2-2.7-6.2-6S1005.7,2326.9,1009.3,2326.9z
			 M1009.3,2336.2c1.8,0,3.1-1.4,3.1-3.2s-1.2-3.2-3.1-3.2s-3.1,1.4-3.1,3.2S1007.4,2336.2,1009.3,2336.2z"/>
		<path class="st1" d="M1026.6,2338.8c-0.4,0.1-1.3,0.2-1.9,0.2c-1.9,0-3.2-0.6-4-1.7c-0.6-0.8-0.9-1.8-0.9-3.5v-4.1h-3.2v-2.6h3.2
			v-3.2h3.1v3.2h3.8v2.6h-3.8v4.4c0,0.7,0.1,1.2,0.4,1.5c0.3,0.4,0.8,0.6,1.6,0.6c0.5,0,1.1-0.1,1.3-0.1L1026.6,2338.8z"/>
		<path class="st1" d="M1034.6,2326.9c3.5,0,6.2,2.7,6.2,6.1s-2.7,6-6.2,6s-6.2-2.7-6.2-6S1031.1,2326.9,1034.6,2326.9z
			 M1034.6,2336.2c1.8,0,3.1-1.4,3.1-3.2s-1.2-3.2-3.1-3.2s-3.1,1.4-3.1,3.2S1032.8,2336.2,1034.6,2336.2z"/>
		<path class="st1" d="M1052,2338.8c-0.4,0.1-1.3,0.2-1.9,0.2c-1.9,0-3.2-0.6-4-1.7c-0.6-0.8-0.9-1.8-0.9-3.5v-4.1h-3.2v-2.6h3.2
			v-3.2h3.1v3.2h3.8v2.6h-3.8v4.4c0,0.7,0.1,1.2,0.4,1.5c0.3,0.4,0.8,0.6,1.6,0.6c0.5,0,1.1-0.1,1.3-0.1L1052,2338.8z"/>
		<path class="st1" d="M1056.6,2321.1c1.1,0,2,0.9,2,2s-0.9,2-2,2s-2-0.9-2-2S1055.5,2321.1,1056.6,2321.1z M1058.2,2338.8h-3.1
			v-11.6h3.1V2338.8z"/>
		<path class="st1" d="M1061.8,2327.2h3v0.9c0.9-0.7,2.1-1.2,3.4-1.2c3.2,0,5.7,2.6,5.7,6.1c0,1.6-0.6,3-1.5,4.1c-1,1.2-2.7,2-4.4,2
			c-1.2,0-2.2-0.3-3.1-1.1v6.6h-3.1V2327.2z M1064.9,2334.8c0.6,0.9,1.6,1.4,2.8,1.4c1.8,0,3.1-1.3,3.1-3.2c0-1.7-1.2-3.2-3-3.2
			c-1.2,0-2.2,0.6-2.9,1.4V2334.8z"/>
		<path class="st1" d="M1088,2338.8h-3v-0.9c-1,0.8-2.1,1.2-3.2,1.2c-1.7,0-3.4-0.8-4.4-2c-0.9-1.1-1.5-2.5-1.5-4.1
			c0-3.4,2.5-6.1,5.7-6.1c1.3,0,2.5,0.4,3.4,1.2v-0.9h3V2338.8z M1084.8,2331.3c-0.6-0.9-1.7-1.4-2.9-1.4c-1.8,0-3,1.5-3,3.2
			c0,1.8,1.3,3.2,3.1,3.2c1.2,0,2.2-0.6,2.8-1.4V2331.3z"/>
		<path class="st1" d="M1099.7,2338.8v-0.9c-1,0.8-2.1,1.2-3.2,1.2c-1.7,0-3.4-0.8-4.4-2c-0.9-1.1-1.5-2.5-1.5-4.1
			c0-3.4,2.5-6.1,5.7-6.1c1.3,0,2.4,0.4,3.3,1.1v-6.2h3.1v17H1099.7z M1099.6,2331.3c-0.6-0.9-1.7-1.4-2.9-1.4c-1.8,0-3,1.5-3,3.2
			c0,1.8,1.3,3.2,3.1,3.2c1.2,0,2.2-0.6,2.8-1.4V2331.3z"/>
		<path class="st1" d="M1117.5,2338.8h-3v-0.9c-1,0.8-2.1,1.2-3.2,1.2c-1.7,0-3.4-0.8-4.4-2c-0.9-1.1-1.5-2.5-1.5-4.1
			c0-3.4,2.5-6.1,5.7-6.1c1.3,0,2.5,0.4,3.4,1.2v-0.9h3V2338.8z M1114.4,2331.3c-0.6-0.9-1.7-1.4-2.9-1.4c-1.8,0-3,1.5-3,3.2
			c0,1.8,1.3,3.2,3.1,3.2c1.2,0,2.2-0.6,2.8-1.4V2331.3z"/>
		<path class="st1" d="M1121.4,2335.3c0.8,0.7,2,1.2,3.2,1.2c0.8,0,1.5-0.4,1.5-1c0-1.8-5.6-1.1-5.6-4.9c0-2.2,2.2-3.6,4.5-3.6
			c1.5,0,3.2,0.6,3.9,1.2l-1.5,2.3c-0.6-0.4-1.4-0.8-2.2-0.8c-0.9,0-1.6,0.3-1.6,0.9c0,1.5,5.6,0.9,5.6,4.9c0,2.2-2.2,3.6-4.6,3.6
			c-1.6,0-3.3-0.6-4.7-1.6L1121.4,2335.3z"/>
	</g>
	<g class="st0">
		<path class="st1" d="M1518.7,2297.4c-0.3-0.1-0.6-0.1-0.9-0.1c-0.8,0-1.4,0.2-1.8,0.7c-0.3,0.3-0.4,0.8-0.4,1.8v0.4h3.6v2.6h-3.6
			v9h-3.1v-9h-3v-2.6h3v-0.5c0-1.9,0.4-3,1.2-3.8s2-1.4,3.6-1.4c0.6,0,1.2,0,1.8,0.2L1518.7,2297.4z"/>
		<path class="st1" d="M1532.6,2300.2v11.6h-3v-0.9c-0.9,0.8-2,1.2-3.1,1.2c-1.6,0-3-0.7-4-1.9c-0.7-0.9-1.2-2.1-1.2-3.8v-6.2h3.1
			v6.3c0,1.1,0.2,1.6,0.6,2c0.5,0.5,1.2,0.7,1.8,0.7c1.3,0,2.3-0.9,2.7-1.4v-7.6H1532.6z"/>
		<path class="st1" d="M1546.2,2310c-1.1,1.3-3,2.1-4.8,2.1c-3.5,0-6.1-2.4-6.1-6c0-3.2,2.2-6.1,5.7-6.1c3.2,0,5.5,2.7,5.5,6
			c0,0.3,0,0.6-0.1,0.9h-8.1c0.2,1.6,1.5,2.8,3.1,2.8c1.3,0,2.4-0.7,2.9-1.3L1546.2,2310z M1543.2,2304.5c-0.1-1-1-2-2.3-2
			c-1.3,0-2.4,1-2.5,2H1543.2z"/>
		<path class="st1" d="M1556.2,2302.9c-0.2-0.1-0.7-0.1-1.1-0.1c-1.4,0-2.4,1-2.8,1.7v7.3h-3.1v-11.6h3v1.2c0.7-0.9,2-1.4,3.4-1.4
			c0.5,0,0.7,0,1.1,0.1L1556.2,2302.9z"/>
		<path class="st1" d="M1563.8,2299.9c3.5,0,6.2,2.7,6.2,6.1s-2.7,6-6.2,6s-6.2-2.7-6.2-6S1560.3,2299.9,1563.8,2299.9z
			 M1563.8,2309.2c1.8,0,3.1-1.4,3.1-3.2s-1.2-3.2-3.1-3.2s-3.1,1.4-3.1,3.2S1562,2309.2,1563.8,2309.2z"/>
		<path class="st1" d="M1572.6,2311.8v-11.6h3v0.9c0.9-0.7,2-1.2,3.3-1.2c1.6,0,3.1,0.7,4,1.9c0.8,0.9,1.2,2.1,1.2,4.1v5.9h-3.1
			v-6.2c0-1.2-0.3-1.8-0.7-2.2c-0.4-0.4-1-0.6-1.8-0.6c-1.3,0-2.4,0.8-2.8,1.4v7.6H1572.6z"/>
	</g>
	<g class="st0">
		<path class="st1" d="M1512.4,2321.1c1.1,0,2,0.9,2,2s-0.9,2-2,2s-2-0.9-2-2S1511.2,2321.1,1512.4,2321.1z M1513.9,2338.8h-3.1
			v-11.6h3.1V2338.8z"/>
		<path class="st1" d="M1517.5,2338.8v-11.6h3v0.9c0.9-0.8,2-1.2,3.1-1.2c1.6,0,3,0.7,3.9,1.8c0.9-1,2.4-1.8,4.1-1.8
			c1.6,0,3.1,0.7,4.1,1.9c0.7,0.9,1.2,2.1,1.2,3.8v6.2h-3.1v-6.3c0-1.1-0.2-1.6-0.6-2c-0.5-0.5-1.2-0.7-1.8-0.7
			c-1.3,0-2.4,0.9-2.8,1.5c0,0.4,0.1,0.8,0.1,1.3v6.2h-3.1v-6.3c0-1.1-0.2-1.6-0.6-2c-0.5-0.5-1.2-0.7-1.8-0.7
			c-1.3,0-2.3,0.9-2.7,1.4v7.6H1517.5z"/>
		<path class="st1" d="M1540.3,2327.2h3v0.9c0.9-0.7,2.1-1.2,3.4-1.2c3.2,0,5.7,2.6,5.7,6.1c0,1.6-0.6,3-1.5,4.1c-1,1.2-2.7,2-4.4,2
			c-1.2,0-2.2-0.3-3.1-1.1v6.6h-3.1V2327.2z M1543.4,2334.8c0.6,0.9,1.6,1.4,2.8,1.4c1.8,0,3.1-1.3,3.1-3.2c0-1.7-1.2-3.2-3-3.2
			c-1.2,0-2.2,0.6-2.9,1.4V2334.8z"/>
		<path class="st1" d="M1558.2,2338.8h-3.1v-17h3.1V2338.8z"/>
		<path class="st1" d="M1571.7,2337c-1.1,1.3-3,2.1-4.8,2.1c-3.5,0-6.1-2.4-6.1-6c0-3.2,2.2-6.1,5.7-6.1c3.2,0,5.5,2.7,5.5,6
			c0,0.3,0,0.6-0.1,0.9h-8.1c0.2,1.6,1.5,2.8,3.1,2.8c1.3,0,2.4-0.7,2.9-1.3L1571.7,2337z M1568.8,2331.5c-0.1-1-1-2-2.3-2
			c-1.3,0-2.4,1-2.5,2H1568.8z"/>
		<path class="st1" d="M1574.6,2338.8v-11.6h3v0.9c0.9-0.8,2-1.2,3.1-1.2c1.6,0,3,0.7,3.9,1.8c0.9-1,2.4-1.8,4.1-1.8
			c1.6,0,3.1,0.7,4.1,1.9c0.7,0.9,1.2,2.1,1.2,3.8v6.2h-3.1v-6.3c0-1.1-0.2-1.6-0.6-2c-0.5-0.5-1.2-0.7-1.8-0.7
			c-1.3,0-2.4,0.9-2.8,1.5c0,0.4,0.1,0.8,0.1,1.3v6.2h-3.1v-6.3c0-1.1-0.2-1.6-0.6-2c-0.5-0.5-1.2-0.7-1.8-0.7
			c-1.3,0-2.3,0.9-2.7,1.4v7.6H1574.6z"/>
		<path class="st1" d="M1607.4,2337c-1.1,1.3-3,2.1-4.8,2.1c-3.5,0-6.1-2.4-6.1-6c0-3.2,2.2-6.1,5.7-6.1c3.2,0,5.5,2.7,5.5,6
			c0,0.3,0,0.6-0.1,0.9h-8.1c0.2,1.6,1.5,2.8,3.1,2.8c1.3,0,2.4-0.7,2.9-1.3L1607.4,2337z M1604.4,2331.5c-0.1-1-1-2-2.3-2
			c-1.3,0-2.4,1-2.5,2H1604.4z"/>
		<path class="st1" d="M1610.3,2338.8v-11.6h3v0.9c0.9-0.7,2-1.2,3.3-1.2c1.6,0,3.1,0.7,4,1.9c0.8,0.9,1.2,2.1,1.2,4.1v5.9h-3.1
			v-6.2c0-1.2-0.3-1.8-0.7-2.2c-0.4-0.4-1-0.6-1.8-0.6c-1.3,0-2.4,0.8-2.8,1.4v7.6H1610.3z"/>
		<path class="st1" d="M1633.4,2338.8c-0.4,0.1-1.3,0.2-1.9,0.2c-1.9,0-3.2-0.6-4-1.7c-0.6-0.8-0.9-1.8-0.9-3.5v-4.1h-3.2v-2.6h3.2
			v-3.2h3.1v3.2h3.8v2.6h-3.8v4.4c0,0.7,0.1,1.2,0.4,1.5c0.3,0.4,0.8,0.6,1.6,0.6c0.5,0,1.1-0.1,1.3-0.1L1633.4,2338.8z"/>
		<path class="st1" d="M1647.4,2338.8h-3v-0.9c-1,0.8-2.1,1.2-3.2,1.2c-1.7,0-3.4-0.8-4.4-2c-0.9-1.1-1.5-2.5-1.5-4.1
			c0-3.4,2.5-6.1,5.7-6.1c1.3,0,2.5,0.4,3.4,1.2v-0.9h3V2338.8z M1644.2,2331.3c-0.6-0.9-1.7-1.4-2.9-1.4c-1.8,0-3,1.5-3,3.2
			c0,1.8,1.3,3.2,3.1,3.2c1.2,0,2.2-0.6,2.8-1.4V2331.3z"/>
		<path class="st1" d="M1659.1,2338.8v-0.9c-1,0.8-2.1,1.2-3.2,1.2c-1.7,0-3.4-0.8-4.4-2c-0.9-1.1-1.5-2.5-1.5-4.1
			c0-3.4,2.5-6.1,5.7-6.1c1.3,0,2.4,0.4,3.3,1.1v-6.2h3.1v17H1659.1z M1659,2331.3c-0.6-0.9-1.7-1.4-2.9-1.4c-1.8,0-3,1.5-3,3.2
			c0,1.8,1.3,3.2,3.1,3.2c1.2,0,2.2-0.6,2.8-1.4V2331.3z"/>
		<path class="st1" d="M1676.9,2338.8h-3v-0.9c-1,0.8-2.1,1.2-3.2,1.2c-1.7,0-3.4-0.8-4.4-2c-0.9-1.1-1.5-2.5-1.5-4.1
			c0-3.4,2.5-6.1,5.7-6.1c1.3,0,2.5,0.4,3.4,1.2v-0.9h3V2338.8z M1673.8,2331.3c-0.6-0.9-1.7-1.4-2.9-1.4c-1.8,0-3,1.5-3,3.2
			c0,1.8,1.3,3.2,3.1,3.2c1.2,0,2.2-0.6,2.8-1.4V2331.3z"/>
		<path class="st1" d="M1680.8,2335.3c0.8,0.7,2,1.2,3.2,1.2c0.8,0,1.5-0.4,1.5-1c0-1.8-5.6-1.1-5.6-4.9c0-2.2,2.2-3.6,4.5-3.6
			c1.5,0,3.2,0.6,3.9,1.2l-1.5,2.3c-0.6-0.4-1.4-0.8-2.2-0.8c-0.9,0-1.6,0.3-1.6,0.9c0,1.5,5.6,0.9,5.6,4.9c0,2.2-2.2,3.6-4.6,3.6
			c-1.6,0-3.3-0.6-4.7-1.6L1680.8,2335.3z"/>
	</g>
	<g class="st0">
		<path class="st1" d="M987.7,2579.4c-0.3-0.1-0.6-0.1-0.9-0.1c-0.8,0-1.4,0.2-1.8,0.7c-0.3,0.3-0.4,0.8-0.4,1.8v0.4h3.6v2.6h-3.6v9
			h-3.1v-9h-3v-2.6h3v-0.5c0-1.9,0.4-3,1.2-3.8s2-1.4,3.6-1.4c0.6,0,1.2,0,1.8,0.2L987.7,2579.4z"/>
		<path class="st1" d="M1001.6,2582.2v11.6h-3v-0.9c-0.9,0.8-2,1.2-3.1,1.2c-1.6,0-3-0.7-4-1.9c-0.7-0.9-1.2-2.1-1.2-3.8v-6.2h3.1
			v6.3c0,1.1,0.2,1.6,0.6,2c0.5,0.5,1.2,0.7,1.8,0.7c1.3,0,2.3-0.9,2.7-1.4v-7.6H1001.6z"/>
		<path class="st1" d="M1015.2,2592c-1.1,1.3-3,2.1-4.8,2.1c-3.5,0-6.1-2.4-6.1-6c0-3.2,2.2-6.1,5.7-6.1c3.2,0,5.5,2.7,5.5,6
			c0,0.3,0,0.6-0.1,0.9h-8.1c0.2,1.6,1.5,2.8,3.1,2.8c1.3,0,2.4-0.7,2.9-1.3L1015.2,2592z M1012.2,2586.5c-0.1-1-1-2-2.3-2
			c-1.3,0-2.4,1-2.5,2H1012.2z"/>
		<path class="st1" d="M1025.2,2584.9c-0.2-0.1-0.7-0.1-1.1-0.1c-1.4,0-2.4,1-2.8,1.7v7.3h-3.1v-11.6h3v1.2c0.7-0.9,2-1.4,3.4-1.4
			c0.5,0,0.7,0,1.1,0.1L1025.2,2584.9z"/>
		<path class="st1" d="M1032.8,2581.9c3.5,0,6.2,2.7,6.2,6.1s-2.7,6-6.2,6s-6.2-2.7-6.2-6S1029.3,2581.9,1032.8,2581.9z
			 M1032.8,2591.2c1.8,0,3.1-1.4,3.1-3.2s-1.2-3.2-3.1-3.2s-3.1,1.4-3.1,3.2S1031,2591.2,1032.8,2591.2z"/>
		<path class="st1" d="M1041.6,2593.8v-11.6h3v0.9c0.9-0.7,2-1.2,3.3-1.2c1.6,0,3.1,0.7,4,1.9c0.8,0.9,1.2,2.1,1.2,4.1v5.9h-3.1
			v-6.2c0-1.2-0.3-1.8-0.7-2.2c-0.4-0.4-1-0.6-1.8-0.6c-1.3,0-2.4,0.8-2.8,1.4v7.6H1041.6z"/>
	</g>
	<g class="st0">
		<path class="st1" d="M988.6,2620.8c-0.4,0.1-1.3,0.2-1.9,0.2c-1.9,0-3.2-0.6-4-1.7c-0.6-0.8-0.9-1.8-0.9-3.5v-4.1h-3.2v-2.6h3.2
			v-3.2h3.1v3.2h3.8v2.6h-3.8v4.4c0,0.7,0.1,1.2,0.4,1.5c0.3,0.4,0.8,0.6,1.6,0.6c0.5,0,1.1-0.1,1.3-0.1L988.6,2620.8z"/>
		<path class="st1" d="M1001.2,2619c-1.1,1.3-3,2.1-4.8,2.1c-3.5,0-6.1-2.4-6.1-6c0-3.2,2.2-6.1,5.7-6.1c3.2,0,5.5,2.7,5.5,6
			c0,0.3,0,0.6-0.1,0.9h-8.1c0.2,1.6,1.5,2.8,3.1,2.8c1.3,0,2.4-0.7,2.9-1.3L1001.2,2619z M998.3,2613.5c-0.1-1-1-2-2.3-2
			c-1.3,0-2.4,1-2.5,2H998.3z"/>
		<path class="st1" d="M1004.6,2617.3c0.8,0.7,2,1.2,3.2,1.2c0.8,0,1.5-0.4,1.5-1c0-1.8-5.6-1.1-5.6-4.9c0-2.2,2.2-3.6,4.5-3.6
			c1.5,0,3.2,0.6,3.9,1.2l-1.5,2.3c-0.6-0.4-1.4-0.8-2.2-0.8c-0.9,0-1.6,0.3-1.6,0.9c0,1.5,5.6,0.9,5.6,4.9c0,2.2-2.2,3.6-4.6,3.6
			c-1.6,0-3.3-0.6-4.7-1.6L1004.6,2617.3z"/>
		<path class="st1" d="M1023.6,2620.8c-0.4,0.1-1.3,0.2-1.9,0.2c-1.9,0-3.2-0.6-4-1.7c-0.6-0.8-0.9-1.8-0.9-3.5v-4.1h-3.2v-2.6h3.2
			v-3.2h3.1v3.2h3.8v2.6h-3.8v4.4c0,0.7,0.1,1.2,0.4,1.5c0.3,0.4,0.8,0.6,1.6,0.6c0.5,0,1.1-0.1,1.3-0.1L1023.6,2620.8z"/>
		<path class="st1" d="M1036.3,2619c-1.1,1.3-3,2.1-4.8,2.1c-3.5,0-6.1-2.4-6.1-6c0-3.2,2.2-6.1,5.7-6.1c3.2,0,5.5,2.7,5.5,6
			c0,0.3,0,0.6-0.1,0.9h-8.1c0.2,1.6,1.5,2.8,3.1,2.8c1.3,0,2.4-0.7,2.9-1.3L1036.3,2619z M1033.4,2613.5c-0.1-1-1-2-2.3-2
			c-1.3,0-2.4,1-2.5,2H1033.4z"/>
		<path class="st1" d="M1050.6,2620.8h-3v-0.9c-1,0.8-2.1,1.2-3.2,1.2c-1.7,0-3.4-0.8-4.4-2c-0.9-1.1-1.5-2.5-1.5-4.1
			c0-3.4,2.5-6.1,5.7-6.1c1.3,0,2.5,0.4,3.4,1.2v-0.9h3V2620.8z M1047.5,2613.3c-0.6-0.9-1.7-1.4-2.9-1.4c-1.8,0-3,1.5-3,3.2
			c0,1.8,1.3,3.2,3.1,3.2c1.2,0,2.2-0.6,2.8-1.4V2613.3z"/>
		<path class="st1" d="M1062.4,2620.8v-0.9c-1,0.8-2.1,1.2-3.2,1.2c-1.7,0-3.4-0.8-4.4-2c-0.9-1.1-1.5-2.5-1.5-4.1
			c0-3.4,2.5-6.1,5.7-6.1c1.3,0,2.4,0.4,3.3,1.1v-6.2h3.1v17H1062.4z M1062.2,2613.3c-0.6-0.9-1.7-1.4-2.9-1.4c-1.8,0-3,1.5-3,3.2
			c0,1.8,1.3,3.2,3.1,3.2c1.2,0,2.2-0.6,2.8-1.4V2613.3z"/>
		<path class="st1" d="M1080.1,2620.8h-3v-0.9c-1,0.8-2.1,1.2-3.2,1.2c-1.7,0-3.4-0.8-4.4-2c-0.9-1.1-1.5-2.5-1.5-4.1
			c0-3.4,2.5-6.1,5.7-6.1c1.3,0,2.5,0.4,3.4,1.2v-0.9h3V2620.8z M1077,2613.3c-0.6-0.9-1.7-1.4-2.9-1.4c-1.8,0-3,1.5-3,3.2
			c0,1.8,1.3,3.2,3.1,3.2c1.2,0,2.2-0.6,2.8-1.4V2613.3z"/>
		<path class="st1" d="M1084.1,2617.3c0.8,0.7,2,1.2,3.2,1.2c0.8,0,1.5-0.4,1.5-1c0-1.8-5.6-1.1-5.6-4.9c0-2.2,2.2-3.6,4.5-3.6
			c1.5,0,3.2,0.6,3.9,1.2l-1.5,2.3c-0.6-0.4-1.4-0.8-2.2-0.8c-0.9,0-1.6,0.3-1.6,0.9c0,1.5,5.6,0.9,5.6,4.9c0,2.2-2.2,3.6-4.6,3.6
			c-1.6,0-3.3-0.6-4.7-1.6L1084.1,2617.3z"/>
		<path class="st1" d="M1101.2,2626.6l3.2-6.9l-5.2-10.5h3.4l3.4,7l3.1-7h3.3l-8,17.4H1101.2z"/>
	</g>
	<g class="st0">
		<path class="st1" d="M991,2647.8h-3v-0.9c-1,0.8-2.1,1.2-3.2,1.2c-1.7,0-3.4-0.8-4.4-2c-0.9-1.1-1.5-2.5-1.5-4.1
			c0-3.4,2.5-6.1,5.7-6.1c1.3,0,2.5,0.4,3.4,1.2v-0.9h3V2647.8z M987.8,2640.3c-0.6-0.9-1.7-1.4-2.9-1.4c-1.8,0-3,1.5-3,3.2
			c0,1.8,1.3,3.2,3.1,3.2c1.2,0,2.2-0.6,2.8-1.4V2640.3z"/>
		<path class="st1" d="M992.8,2650.8c0.2,0.1,0.6,0.1,0.8,0.1c0.6,0,1.2-0.2,1.5-0.5c0.3-0.3,0.5-0.8,0.5-2v-12.2h3.1v12.2
			c0,1.8-0.2,2.8-0.8,3.7c-0.7,1-1.9,1.7-4,1.7c-0.6,0-1.2-0.1-1.6-0.2L992.8,2650.8z M997.1,2630.1c1.1,0,2,0.9,2,2s-0.9,2-2,2
			s-2-0.9-2-2S996,2630.1,997.1,2630.1z"/>
		<path class="st1" d="M1013.3,2636.2v11.6h-3v-0.9c-0.9,0.8-2,1.2-3.1,1.2c-1.6,0-3-0.7-4-1.9c-0.7-0.9-1.2-2.1-1.2-3.8v-6.2h3.1
			v6.3c0,1.1,0.2,1.6,0.6,2c0.5,0.5,1.2,0.7,1.8,0.7c1.3,0,2.3-0.9,2.7-1.4v-7.6H1013.3z"/>
		<path class="st1" d="M1017.2,2644.3c0.8,0.7,2,1.2,3.2,1.2c0.8,0,1.5-0.4,1.5-1c0-1.8-5.6-1.1-5.6-4.9c0-2.2,2.2-3.6,4.5-3.6
			c1.5,0,3.2,0.6,3.9,1.2l-1.5,2.3c-0.6-0.4-1.4-0.8-2.2-0.8c-0.9,0-1.6,0.3-1.6,0.9c0,1.5,5.6,0.9,5.6,4.9c0,2.2-2.2,3.6-4.6,3.6
			c-1.6,0-3.3-0.6-4.7-1.6L1017.2,2644.3z"/>
		<path class="st1" d="M1036.2,2647.8c-0.4,0.1-1.3,0.2-1.9,0.2c-1.9,0-3.2-0.6-4-1.7c-0.6-0.8-0.9-1.8-0.9-3.5v-4.1h-3.2v-2.6h3.2
			v-3.2h3.1v3.2h3.8v2.6h-3.8v4.4c0,0.7,0.1,1.2,0.4,1.5c0.3,0.4,0.8,0.6,1.6,0.6c0.5,0,1.1-0.1,1.3-0.1L1036.2,2647.8z"/>
		<path class="st1" d="M1050.1,2647.8h-3v-0.9c-1,0.8-2.1,1.2-3.2,1.2c-1.7,0-3.4-0.8-4.4-2c-0.9-1.1-1.5-2.5-1.5-4.1
			c0-3.4,2.5-6.1,5.7-6.1c1.3,0,2.5,0.4,3.4,1.2v-0.9h3V2647.8z M1047,2640.3c-0.6-0.9-1.7-1.4-2.9-1.4c-1.8,0-3,1.5-3,3.2
			c0,1.8,1.3,3.2,3.1,3.2c1.2,0,2.2-0.6,2.8-1.4V2640.3z"/>
		<path class="st1" d="M1061.9,2647.8v-0.9c-1,0.8-2.1,1.2-3.2,1.2c-1.7,0-3.4-0.8-4.4-2c-0.9-1.1-1.5-2.5-1.5-4.1
			c0-3.4,2.5-6.1,5.7-6.1c1.3,0,2.4,0.4,3.3,1.1v-6.2h3.1v17H1061.9z M1061.8,2640.3c-0.6-0.9-1.7-1.4-2.9-1.4c-1.8,0-3,1.5-3,3.2
			c0,1.8,1.3,3.2,3.1,3.2c1.2,0,2.2-0.6,2.8-1.4V2640.3z"/>
		<path class="st1" d="M1079.6,2647.8h-3v-0.9c-1,0.8-2.1,1.2-3.2,1.2c-1.7,0-3.4-0.8-4.4-2c-0.9-1.1-1.5-2.5-1.5-4.1
			c0-3.4,2.5-6.1,5.7-6.1c1.3,0,2.5,0.4,3.4,1.2v-0.9h3V2647.8z M1076.5,2640.3c-0.6-0.9-1.7-1.4-2.9-1.4c-1.8,0-3,1.5-3,3.2
			c0,1.8,1.3,3.2,3.1,3.2c1.2,0,2.2-0.6,2.8-1.4V2640.3z"/>
		<path class="st1" d="M1083.6,2644.3c0.8,0.7,2,1.2,3.2,1.2c0.8,0,1.5-0.4,1.5-1c0-1.8-5.6-1.1-5.6-4.9c0-2.2,2.2-3.6,4.5-3.6
			c1.5,0,3.2,0.6,3.9,1.2l-1.5,2.3c-0.6-0.4-1.4-0.8-2.2-0.8c-0.9,0-1.6,0.3-1.6,0.9c0,1.5,5.6,0.9,5.6,4.9c0,2.2-2.2,3.6-4.6,3.6
			c-1.6,0-3.3-0.6-4.7-1.6L1083.6,2644.3z"/>
	</g>
	<g class="st0">
		<path class="st1" d="M1518.7,2589.4c-0.3-0.1-0.6-0.1-0.9-0.1c-0.8,0-1.4,0.2-1.8,0.7c-0.3,0.3-0.4,0.8-0.4,1.8v0.4h3.6v2.6h-3.6
			v9h-3.1v-9h-3v-2.6h3v-0.5c0-1.9,0.4-3,1.2-3.8s2-1.4,3.6-1.4c0.6,0,1.2,0,1.8,0.2L1518.7,2589.4z"/>
		<path class="st1" d="M1532.6,2592.2v11.6h-3v-0.9c-0.9,0.8-2,1.2-3.1,1.2c-1.6,0-3-0.7-4-1.9c-0.7-0.9-1.2-2.1-1.2-3.8v-6.2h3.1
			v6.3c0,1.1,0.2,1.6,0.6,2c0.5,0.5,1.2,0.7,1.8,0.7c1.3,0,2.3-0.9,2.7-1.4v-7.6H1532.6z"/>
		<path class="st1" d="M1546.2,2602c-1.1,1.3-3,2.1-4.8,2.1c-3.5,0-6.1-2.4-6.1-6c0-3.2,2.2-6.1,5.7-6.1c3.2,0,5.5,2.7,5.5,6
			c0,0.3,0,0.6-0.1,0.9h-8.1c0.2,1.6,1.5,2.8,3.1,2.8c1.3,0,2.4-0.7,2.9-1.3L1546.2,2602z M1543.2,2596.5c-0.1-1-1-2-2.3-2
			c-1.3,0-2.4,1-2.5,2H1543.2z"/>
		<path class="st1" d="M1556.2,2594.9c-0.2-0.1-0.7-0.1-1.1-0.1c-1.4,0-2.4,1-2.8,1.7v7.3h-3.1v-11.6h3v1.2c0.7-0.9,2-1.4,3.4-1.4
			c0.5,0,0.7,0,1.1,0.1L1556.2,2594.9z"/>
		<path class="st1" d="M1563.8,2591.9c3.5,0,6.2,2.7,6.2,6.1s-2.7,6-6.2,6s-6.2-2.7-6.2-6S1560.3,2591.9,1563.8,2591.9z
			 M1563.8,2601.2c1.8,0,3.1-1.4,3.1-3.2s-1.2-3.2-3.1-3.2s-3.1,1.4-3.1,3.2S1562,2601.2,1563.8,2601.2z"/>
		<path class="st1" d="M1572.6,2603.8v-11.6h3v0.9c0.9-0.7,2-1.2,3.3-1.2c1.6,0,3.1,0.7,4,1.9c0.8,0.9,1.2,2.1,1.2,4.1v5.9h-3.1
			v-6.2c0-1.2-0.3-1.8-0.7-2.2c-0.4-0.4-1-0.6-1.8-0.6c-1.3,0-2.4,0.8-2.8,1.4v7.6H1572.6z"/>
	</g>
	<g class="st0">
		<path class="st1" d="M1520.7,2629c-1.1,1.3-3,2.1-4.8,2.1c-3.5,0-6.1-2.4-6.1-6c0-3.2,2.2-6.1,5.7-6.1c3.2,0,5.5,2.7,5.5,6
			c0,0.3,0,0.6-0.1,0.9h-8.1c0.2,1.6,1.5,2.8,3.1,2.8c1.3,0,2.4-0.7,2.9-1.3L1520.7,2629z M1517.8,2623.5c-0.1-1-1-2-2.3-2
			c-1.3,0-2.4,1-2.5,2H1517.8z"/>
		<path class="st1" d="M1528.3,2626.3l3.2-7.1h3.2l-5.4,11.6h-2.2l-5.4-11.6h3.2L1528.3,2626.3z"/>
		<path class="st1" d="M1547.5,2630.8h-3v-0.9c-1,0.8-2.1,1.2-3.2,1.2c-1.7,0-3.4-0.8-4.4-2c-0.9-1.1-1.5-2.5-1.5-4.1
			c0-3.4,2.5-6.1,5.7-6.1c1.3,0,2.5,0.4,3.4,1.2v-0.9h3V2630.8z M1544.4,2623.3c-0.6-0.9-1.7-1.4-2.9-1.4c-1.8,0-3,1.5-3,3.2
			c0,1.8,1.3,3.2,3.1,3.2c1.2,0,2.2-0.6,2.8-1.4V2623.3z"/>
		<path class="st1" d="M1554.3,2630.8h-3.1v-17h3.1V2630.8z"/>
		<path class="st1" d="M1568.9,2619.2v11.6h-3v-0.9c-0.9,0.8-2,1.2-3.1,1.2c-1.6,0-3-0.7-4-1.9c-0.7-0.9-1.2-2.1-1.2-3.8v-6.2h3.1
			v6.3c0,1.1,0.2,1.6,0.6,2c0.5,0.5,1.2,0.7,1.8,0.7c1.3,0,2.3-0.9,2.7-1.4v-7.6H1568.9z"/>
		<path class="st1" d="M1583.7,2630.8h-3v-0.9c-1,0.8-2.1,1.2-3.2,1.2c-1.7,0-3.4-0.8-4.4-2c-0.9-1.1-1.5-2.5-1.5-4.1
			c0-3.4,2.5-6.1,5.7-6.1c1.3,0,2.5,0.4,3.4,1.2v-0.9h3V2630.8z M1580.5,2623.3c-0.6-0.9-1.7-1.4-2.9-1.4c-1.8,0-3,1.5-3,3.2
			c0,1.8,1.3,3.2,3.1,3.2c1.2,0,2.2-0.6,2.8-1.4V2623.3z"/>
		<path class="st1" d="M1595.4,2630.8v-0.9c-1,0.8-2.1,1.2-3.2,1.2c-1.7,0-3.4-0.8-4.4-2c-0.9-1.1-1.5-2.5-1.5-4.1
			c0-3.4,2.5-6.1,5.7-6.1c1.3,0,2.4,0.4,3.3,1.1v-6.2h3.1v17H1595.4z M1595.3,2623.3c-0.6-0.9-1.7-1.4-2.9-1.4c-1.8,0-3,1.5-3,3.2
			c0,1.8,1.3,3.2,3.1,3.2c1.2,0,2.2-0.6,2.8-1.4V2623.3z"/>
		<path class="st1" d="M1613.2,2630.8h-3v-0.9c-1,0.8-2.1,1.2-3.2,1.2c-1.7,0-3.4-0.8-4.4-2c-0.9-1.1-1.5-2.5-1.5-4.1
			c0-3.4,2.5-6.1,5.7-6.1c1.3,0,2.5,0.4,3.4,1.2v-0.9h3V2630.8z M1610.1,2623.3c-0.6-0.9-1.7-1.4-2.9-1.4c-1.8,0-3,1.5-3,3.2
			c0,1.8,1.3,3.2,3.1,3.2c1.2,0,2.2-0.6,2.8-1.4V2623.3z"/>
		<path class="st1" d="M1617.1,2627.3c0.8,0.7,2,1.2,3.2,1.2c0.8,0,1.5-0.4,1.5-1c0-1.8-5.6-1.1-5.6-4.9c0-2.2,2.2-3.6,4.5-3.6
			c1.5,0,3.2,0.6,3.9,1.2l-1.5,2.3c-0.6-0.4-1.4-0.8-2.2-0.8c-0.9,0-1.6,0.3-1.6,0.9c0,1.5,5.6,0.9,5.6,4.9c0,2.2-2.2,3.6-4.6,3.6
			c-1.6,0-3.3-0.6-4.7-1.6L1617.1,2627.3z"/>
	</g>
	<g class="st0">
		<path class="st1" d="M982.4,1935.1l13.6-8h7.6v56h-10.8v-43.5l-10.4,5.8V1935.1z"/>
		<path class="st1" d="M1021.8,1968.7c2.3,3.3,6.2,5.6,10.4,5.6c5.3,0,10.5-4.2,10.5-10.2c0-5.8-4.8-10.2-11-10.2
			c-2.2,0-4.6,0.6-6.7,1.6v-6.4l10.5-12.4h-18.7v-9.6h34v6.4l-10.2,12.5c7.7,3,13,9.7,13,18.2c0,11.8-9.3,19.8-20.9,19.8
			c-7,0-13.6-3.1-18.6-8.7L1021.8,1968.7z"/>
		<path class="st1" d="M1081.8,1926.3c14.3,0,19.6,12.9,19.6,28.8c0,15.9-5.3,28.8-19.6,28.8s-19.6-12.9-19.6-28.8
			C1062.2,1939.2,1067.5,1926.3,1081.8,1926.3z M1081.8,1935.9c-6.5,0-8.8,8.6-8.8,19.2c0,10.6,2.3,19.2,8.8,19.2
			c6.5,0,8.8-8.6,8.8-19.2C1090.6,1944.6,1088.3,1935.9,1081.8,1935.9z"/>
	</g>
	<g class="st0">
		<path class="st1" d="M1547.4,1927.1v33.6h9.2v9.6h-9.2v12.8h-10.8v-12.8h-26v-6.4l29.2-36.8H1547.4z M1536.6,1960.7v-13.1
			l-10.5,13.1H1536.6z"/>
		<path class="st1" d="M1568.4,1969.9c2.4,2.6,5.8,4.5,9.6,4.5c2.5,0,4.9-0.9,6.7-2.6c1.9-1.8,3.1-4.3,3.1-7.2c0-3-1.3-5.8-3.4-7.6
			c-1.8-1.5-4.2-2.2-6.8-2.2c-2.7,0-5.8,1-8.2,3l-6.7-1l3.6-29.7h29.6v9.6H1575l-0.9,8.8c1.1-0.2,2.8-0.4,4.3-0.4
			c4.3,0,9.1,1,13,4.2c4.4,3.5,7.1,9.2,7.1,15.2c0,11-9.4,19.4-20.6,19.4c-6.5,0-12.1-2.3-17-7.2L1568.4,1969.9z"/>
	</g>
	<g class="st0">
		<path class="st1" d="M991,2276.1l10.6-17.8h-0.7c-10.6,0-19.6-8.1-19.6-19.3c0-10.9,9-19.7,19.9-19.7c10.5,0,20.5,7.4,20.5,19.1
			c0,5.5-2.6,10.5-5.5,15.4l-13.2,22.2H991z M1011.2,2238.5c0-5.3-4.5-9.5-9.9-9.5c-5.5,0-9.4,4.4-9.4,9.8c0,5.4,4,10,10,10
			c2,0,3.9-0.4,6-1.4C1009.4,2245.3,1011.2,2242.2,1011.2,2238.5z"/>
		<path class="st1" d="M1049.2,2219.3c14.3,0,19.6,12.9,19.6,28.8c0,15.9-5.3,28.8-19.6,28.8s-19.6-12.9-19.6-28.8
			C1029.6,2232.2,1034.9,2219.3,1049.2,2219.3z M1049.2,2228.9c-6.5,0-8.8,8.6-8.8,19.2c0,10.6,2.3,19.2,8.8,19.2
			c6.5,0,8.8-8.6,8.8-19.2C1058,2237.6,1055.7,2228.9,1049.2,2228.9z"/>
	</g>
	<g class="st0">
		<path class="st1" d="M1513.4,2228.1l13.6-8h7.6v56h-10.8v-43.5l-10.4,5.8V2228.1z"/>
		<path class="st1" d="M1547.8,2228.1l13.6-8h7.6v56h-10.8v-43.5l-10.4,5.8V2228.1z"/>
		<path class="st1" d="M1601.4,2219.3c14.3,0,19.6,12.9,19.6,28.8c0,15.9-5.3,28.8-19.6,28.8s-19.6-12.9-19.6-28.8
			C1581.8,2232.2,1587.1,2219.3,1601.4,2219.3z M1601.4,2228.9c-6.5,0-8.8,8.6-8.8,19.2c0,10.6,2.3,19.2,8.8,19.2
			c6.5,0,8.8-8.6,8.8-19.2C1610.2,2237.6,1607.9,2228.9,1601.4,2228.9z"/>
	</g>
	<g class="st0">
		<path class="st1" d="M988.6,2544.9c2.4,2.6,5.8,4.5,9.6,4.5c2.5,0,4.9-0.9,6.7-2.6c1.9-1.8,3.1-4.3,3.1-7.2c0-3-1.3-5.8-3.4-7.6
			c-1.8-1.5-4.2-2.2-6.8-2.2c-2.7,0-5.8,1-8.2,3l-6.7-1l3.6-29.7h29.6v9.6h-20.8l-0.9,8.8c1.1-0.2,2.8-0.4,4.3-0.4
			c4.3,0,9.1,1,13,4.2c4.4,3.5,7.1,9.2,7.1,15.2c0,11-9.4,19.4-20.6,19.4c-6.5,0-12.1-2.3-17-7.2L988.6,2544.9z"/>
		<path class="st1" d="M1047.2,2501.3c14.3,0,19.6,12.9,19.6,28.8c0,15.9-5.3,28.8-19.6,28.8s-19.6-12.9-19.6-28.8
			C1027.6,2514.2,1032.9,2501.3,1047.2,2501.3z M1047.2,2510.9c-6.5,0-8.8,8.6-8.8,19.2c0,10.6,2.3,19.2,8.8,19.2
			c6.5,0,8.8-8.6,8.8-19.2C1056,2519.6,1053.7,2510.9,1047.2,2510.9z"/>
	</g>
	<g class="st0">
		<path class="st1" d="M1513.4,2520.1l13.6-8h7.6v56h-10.8v-43.5l-10.4,5.8V2520.1z"/>
		<path class="st1" d="M1547,2550.8c0-6.6,3.4-11.1,8.1-14.2c-2.4-2.2-4.5-5.3-4.5-9.8c0-8.6,7-15.4,16.4-15.4s16.4,6.9,16.4,15.4
			c0,4.6-2.1,7.7-4.5,9.8c4.6,3,8.1,7.6,8.1,14.2c0,10.2-8.8,18.2-20,18.2S1547,2560.9,1547,2550.8z M1576.2,2550.8
			c0-4.8-3.9-8.6-9.2-8.6s-9.2,3.8-9.2,8.6c0,4.8,3.9,8.6,9.2,8.6S1576.2,2555.6,1576.2,2550.8z M1572.6,2526.8
			c0-3.2-2.2-5.8-5.6-5.8s-5.6,2.6-5.6,5.8s2.2,5.8,5.6,5.8S1572.6,2530,1572.6,2526.8z"/>
	</g>
	<g id="Grupo_2140" transform="translate(709 2163.859)">
		<path id="Trazado_2845" class="st2" d="M115.9,47.3L115.9,47.3V0c-25.5,0-47.3,7.1-68,22.1l27.8,38.2
			C87.4,51.8,101.4,47.3,115.9,47.3z"/>
		<path id="Trazado_2846" class="st2" d="M75.7,60.3L47.9,22.1c-20.7,15-34.1,33.5-42,57.8l45,14.6C55.3,80.8,64,68.8,75.7,60.3z"/>
		<path id="Trazado_2847" class="st2" d="M47.5,115.6c0-7.2,1.1-14.3,3.3-21.1l-45-14.6c-7.9,24.3-7.9,47.2,0,71.5l45-14.6
			C48.7,129.9,47.5,122.8,47.5,115.6z"/>
		<path id="Trazado_2848" class="st2" d="M50.9,136.8l-45,14.6c7.9,24.3,21.3,42.8,42,57.8l27.8-38.2
			C64,162.4,55.3,150.5,50.9,136.8z"/>
		<path id="Trazado_2849" class="st2" d="M115.9,184c-14.4,0-28.5-4.6-40.2-13.1l-27.8,38.2c20.7,15,42.4,22.1,68,22.1V184
			L115.9,184z"/>
		<path id="Trazado_2850" class="st2" d="M115.9,184v47.3c25.5,0,47.3-7.1,68-22.1l-27.8-38.3C144.4,179.4,130.3,184,115.9,184z"/>
		<path id="Trazado_2851" class="st2" d="M156.1,170.9l27.8,38.2c20.7-15,34.1-33.5,42-57.8l-45-14.6
			C176.4,150.5,167.7,162.4,156.1,170.9z"/>
		<path id="Trazado_2852" class="st3" d="M225.9,79.9l-45,14.6c2.2,6.8,3.3,14,3.3,21.1c0,7.2-1.1,14.3-3.3,21.1l45,14.6
			C233.7,127.1,233.7,104.2,225.9,79.9z"/>
		<path id="Trazado_2853" class="st3" d="M180.9,94.5l45-14.6c-7.9-24.3-21.3-42.8-42-57.8l-27.8,38.2
			C167.7,68.8,176.4,80.8,180.9,94.5z"/>
		<path id="Trazado_2854" class="st3" d="M156.1,60.3l27.8-38.2C163.2,7.1,141.4,0,115.9,0v47.3C130.3,47.3,144.4,51.8,156.1,60.3z"
			/>
	</g>
	<g id="Grupo_2145" transform="translate(709 1867)">
		<path id="Trazado_2845-2" class="st4" d="M115.9,47.3L115.9,47.3V0c-25.5,0-47.3,7.1-68,22.1l27.8,38.2
			C87.4,51.8,101.4,47.3,115.9,47.3z"/>
		<path id="Trazado_2846-2" class="st4" d="M75.7,60.3L47.9,22.1c-20.7,15-34.1,33.5-42,57.8l45,14.6C55.3,80.8,64,68.8,75.7,60.3z"
			/>
		<path id="Trazado_2847-2" class="st4" d="M47.5,115.6c0-7.2,1.1-14.3,3.3-21.1l-45-14.6c-7.9,24.3-7.9,47.2,0,71.5l45-14.6
			C48.7,129.9,47.5,122.8,47.5,115.6z"/>
		<path id="Trazado_2848-2" class="st4" d="M50.9,136.8l-45,14.6c7.9,24.3,21.3,42.8,42,57.8l27.8-38.2
			C64,162.4,55.3,150.5,50.9,136.8z"/>
		<path id="Trazado_2849-2" class="st4" d="M115.9,184c-14.4,0-28.5-4.6-40.2-13.1l-27.8,38.2c20.7,15,42.4,22.1,68,22.1V184
			L115.9,184z"/>
		<path id="Trazado_2850-2" class="st4" d="M115.9,184v47.3c25.5,0,47.3-7.1,68-22.1l-27.8-38.3C144.4,179.4,130.3,184,115.9,184z"
			/>
		<path id="Trazado_2851-2" class="st4" d="M156.1,170.9l27.8,38.2c20.7-15,34.1-33.5,42-57.8l-45-14.6
			C176.4,150.5,167.7,162.4,156.1,170.9z"/>
		<path id="Trazado_2852-2" class="st4" d="M225.9,79.9l-45,14.6c2.2,6.8,3.3,14,3.3,21.1c0,7.2-1.1,14.3-3.3,21.1l45,14.6
			C233.7,127.1,233.7,104.2,225.9,79.9z"/>
		<path id="Trazado_2853-2" class="st4" d="M180.9,94.5l45-14.6c-7.9-24.3-21.3-42.8-42-57.8l-27.8,38.2
			C167.7,68.8,176.4,80.8,180.9,94.5z"/>
		<path id="Trazado_2854-2" class="st4" d="M156.1,60.3l27.8-38.2C163.2,7.1,141.4,0,115.9,0v47.3C130.3,47.3,144.4,51.8,156.1,60.3
			z"/>
	</g>
	<g id="Grupo_2141" transform="translate(709 2465)">
		<path id="Trazado_2845-3" class="st5" d="M115.9,47.3L115.9,47.3V0c-25.5,0-47.3,7.1-68,22.1l27.8,38.2
			C87.4,51.8,101.4,47.3,115.9,47.3z"/>
		<path id="Trazado_2846-3" class="st5" d="M75.7,60.3L47.9,22.1c-20.7,15-34.1,33.5-42,57.8l45,14.6C55.3,80.8,64,68.8,75.7,60.3z"
			/>
		<path id="Trazado_2847-3" class="st5" d="M47.5,115.6c0-7.2,1.1-14.3,3.3-21.1l-45-14.6c-7.9,24.3-7.9,47.2,0,71.5l45-14.6
			C48.7,129.9,47.5,122.8,47.5,115.6z"/>
		<path id="Trazado_2848-3" class="st5" d="M50.9,136.7l-45,14.6c7.9,24.3,21.3,42.8,42,57.8l27.8-38.2
			C64,162.4,55.3,150.5,50.9,136.7z"/>
		<path id="Trazado_2849-3" class="st3" d="M115.9,184c-14.4,0-28.5-4.6-40.2-13.1l-27.8,38.2c20.7,15,42.4,22.1,68,22.1V184
			L115.9,184z"/>
		<path id="Trazado_2850-3" class="st3" d="M115.9,184v47.3c25.5,0,47.3-7.1,68-22.1l-27.8-38.3C144.4,179.4,130.3,184,115.9,184z"
			/>
		<path id="Trazado_2851-3" class="st3" d="M156.1,170.9l27.8,38.2c20.7-15,34.1-33.5,42-57.8l-45-14.6
			C176.4,150.5,167.7,162.4,156.1,170.9z"/>
		<path id="Trazado_2852-3" class="st3" d="M225.9,79.9l-45,14.6c2.2,6.8,3.3,14,3.3,21.1c0,7.2-1.1,14.3-3.3,21.1l45,14.6
			C233.7,127.1,233.7,104.2,225.9,79.9z"/>
		<path id="Trazado_2853-3" class="st3" d="M180.9,94.5l45-14.6c-7.9-24.3-21.3-42.8-42-57.8l-27.8,38.2
			C167.7,68.8,176.4,80.8,180.9,94.5z"/>
		<path id="Trazado_2854-3" class="st3" d="M156.1,60.3l27.8-38.2C163.2,7.1,141.4,0,115.9,0v47.3C130.3,47.3,144.4,51.8,156.1,60.3
			z"/>
	</g>
	<g id="Grupo_2144" transform="translate(1239 2465)">
		<path id="Trazado_2845-4" class="st6" d="M115.9,47.3L115.9,47.3V0c-25.5,0-47.3,7.1-68,22.1l27.8,38.2
			C87.4,51.8,101.4,47.3,115.9,47.3z"/>
		<path id="Trazado_2846-4" class="st6" d="M75.7,60.3L47.9,22.1c-20.7,15-34.1,33.5-42,57.8l45,14.6C55.3,80.8,64,68.8,75.7,60.3z"
			/>
		<path id="Trazado_2847-4" class="st3" d="M47.5,115.6c0-7.2,1.1-14.3,3.3-21.1l-45-14.6c-7.9,24.3-7.9,47.2,0,71.5l45-14.6
			C48.7,129.9,47.5,122.8,47.5,115.6z"/>
		<path id="Trazado_2848-4" class="st3" d="M50.9,136.8l-45,14.6c7.9,24.3,21.3,42.8,42,57.8l27.8-38.2
			C64,162.4,55.3,150.5,50.9,136.8z"/>
		<path id="Trazado_2849-4" class="st3" d="M115.9,184c-14.4,0-28.5-4.6-40.2-13.1l-27.8,38.2c20.7,15,42.4,22.1,68,22.1V184
			L115.9,184z"/>
		<path id="Trazado_2850-4" class="st3" d="M115.9,184v47.3c25.5,0,47.3-7.1,68-22.1l-27.8-38.3C144.4,179.4,130.3,184,115.9,184z"
			/>
		<path id="Trazado_2851-4" class="st3" d="M156.1,170.9l27.8,38.2c20.7-15,34.1-33.5,42-57.8l-45-14.6
			C176.4,150.5,167.7,162.4,156.1,170.9z"/>
		<path id="Trazado_2852-4" class="st3" d="M225.9,79.9l-45,14.6c2.2,6.8,3.3,14,3.3,21.1c0,7.2-1.1,14.3-3.3,21.1l45,14.6
			C233.7,127.1,233.7,104.2,225.9,79.9z"/>
		<path id="Trazado_2853-4" class="st3" d="M180.9,94.5l45-14.6c-7.9-24.3-21.3-42.8-42-57.8l-27.8,38.2
			C167.7,68.8,176.4,80.8,180.9,94.5z"/>
		<path id="Trazado_2854-4" class="st3" d="M156.1,60.3l27.8-38.2C163.2,7.1,141.4,0,115.9,0v47.3C130.3,47.3,144.4,51.8,156.1,60.3
			z"/>
	</g>
	<g id="Grupo_2142" transform="translate(1239 1867)">
		<path id="Trazado_2845-5" class="st5" d="M115.9,47.3L115.9,47.3V0c-25.5,0-47.3,7.1-68,22.1l27.8,38.2
			C87.4,51.8,101.4,47.3,115.9,47.3z"/>
		<path id="Trazado_2846-5" class="st5" d="M75.7,60.3L47.9,22.1c-20.7,15-34.1,33.5-42,57.8l45,14.6C55.3,80.8,64,68.8,75.7,60.3z"
			/>
		<path id="Trazado_2847-5" class="st5" d="M47.5,115.6c0-7.2,1.1-14.3,3.3-21.1l-45-14.6c-7.9,24.3-7.9,47.2,0,71.5l45-14.6
			C48.7,129.9,47.5,122.8,47.5,115.6z"/>
		<path id="Trazado_2848-5" class="st3" d="M50.9,136.7l-45,14.6c7.9,24.3,21.3,42.8,42,57.8l27.8-38.2
			C64,162.4,55.3,150.5,50.9,136.7z"/>
		<path id="Trazado_2849-5" class="st3" d="M115.9,184c-14.4,0-28.5-4.6-40.2-13.1l-27.8,38.2c20.7,15,42.4,22.1,68,22.1V184
			L115.9,184z"/>
		<path id="Trazado_2850-5" class="st3" d="M115.9,184v47.3c25.5,0,47.3-7.1,68-22.1l-27.8-38.3C144.4,179.4,130.3,184,115.9,184z"
			/>
		<path id="Trazado_2851-5" class="st3" d="M156.1,170.9l27.8,38.2c20.7-15,34.1-33.5,42-57.8l-45-14.6
			C176.4,150.5,167.7,162.4,156.1,170.9z"/>
		<path id="Trazado_2852-5" class="st3" d="M225.9,79.9l-45,14.6c2.2,6.8,3.3,14,3.3,21.1c0,7.2-1.1,14.3-3.3,21.1l45,14.6
			C233.7,127.1,233.7,104.2,225.9,79.9z"/>
		<path id="Trazado_2853-5" class="st3" d="M180.9,94.5l45-14.6c-7.9-24.3-21.3-42.8-42-57.8l-27.8,38.2
			C167.7,68.8,176.4,80.8,180.9,94.5z"/>
		<path id="Trazado_2854-5" class="st3" d="M156.1,60.3l27.8-38.2C163.2,7.1,141.4,0,115.9,0v47.3C130.3,47.3,144.4,51.8,156.1,60.3
			z"/>
	</g>
	<g id="Grupo_2143" transform="translate(1239 2163.858)">
		<path id="Trazado_2845-6" class="st7" d="M115.9,47.3L115.9,47.3V0c-25.5,0-47.3,7.1-68,22.1l27.8,38.2
			C87.4,51.8,101.4,47.3,115.9,47.3z"/>
		<path id="Trazado_2846-6" class="st7" d="M75.7,60.3L47.9,22.1c-20.7,15-34.1,33.5-42,57.8l45,14.6C55.3,80.8,64,68.8,75.7,60.3z"
			/>
		<path id="Trazado_2847-6" class="st7" d="M47.5,115.6c0-7.2,1.1-14.3,3.3-21.1l-45-14.6c-7.9,24.3-7.9,47.2,0,71.5l45-14.6
			C48.7,129.9,47.5,122.8,47.5,115.6z"/>
		<path id="Trazado_2848-6" class="st7" d="M50.9,136.8l-45,14.6c7.9,24.3,21.3,42.8,42,57.8l27.8-38.2
			C64,162.4,55.3,150.5,50.9,136.8z"/>
		<path id="Trazado_2849-6" class="st7" d="M115.9,184c-14.4,0-28.5-4.6-40.2-13.1l-27.8,38.2c20.7,15,42.4,22.1,68,22.1V184
			L115.9,184z"/>
		<path id="Trazado_2850-6" class="st7" d="M115.9,184v47.3c25.5,0,47.3-7.1,68-22.1l-27.8-38.3C144.4,179.4,130.3,184,115.9,184z"
			/>
		<path id="Trazado_2851-6" class="st7" d="M156.1,170.9l27.8,38.2c20.7-15,34.1-33.5,42-57.8l-45-14.6
			C176.4,150.5,167.7,162.4,156.1,170.9z"/>
		<path id="Trazado_2852-6" class="st7" d="M225.9,79.9l-45,14.6c2.2,6.8,3.3,14,3.3,21.1c0,7.2-1.1,14.3-3.3,21.1l45,14.6
			C233.7,127.1,233.7,104.2,225.9,79.9z"/>
		<path id="Trazado_2853-6" class="st3" d="M180.9,94.5l45-14.6c-7.9-24.3-21.3-42.8-42-57.8l-27.8,38.2
			C167.7,68.8,176.4,80.8,180.9,94.5z"/>
		<path id="Trazado_2854-6" class="st3" d="M156.1,60.3l27.8-38.2C163.2,7.1,141.4,0,115.9,0v47.3C130.3,47.3,144.4,51.8,156.1,60.3
			z"/>
	</g>
	<line id="Línea_529" class="st8" x1="824.5" y1="2105.5" x2="824.5" y2="2154.5"/>
	<line id="Línea_532" class="st8" x1="1354.9" y1="2105.5" x2="1354.9" y2="2154.5"/>
	<line id="Línea_530" class="st8" x1="824.5" y1="2404.5" x2="824.5" y2="2453.5"/>
	<line id="Línea_531" class="st8" x1="1354.9" y1="2404.5" x2="1354.9" y2="2453.5"/>
</g>
</svg>
