<?xml version="1.0" encoding="utf-8"?>
<!-- Generator: Adobe Illustrator 25.2.0, SVG Export Plug-In . SVG Version: 6.00 Build 0)  -->
<svg version="1.1" id="Capa_1" xmlns="http://www.w3.org/2000/svg" xmlns:xlink="http://www.w3.org/1999/xlink" x="0px" y="0px"
	 viewBox="0 0 1328.8 901.5" style="enable-background:new 0 0 1328.8 901.5;" xml:space="preserve">
<style type="text/css">
	.st0{enable-background:new    ;}
	.st1{fill:#333333;}
	.st2{fill:#100000;}
	.st3{fill:#6D6A6A;}
	.st4{fill:none;stroke:#717171;stroke-width:4;stroke-miterlimit:10;}
	.st5{fill:none;stroke:#989898;stroke-miterlimit:10;}
	.st6{fill:#FF7043;}
	.st7{fill:none;stroke:#FF7043;stroke-width:3;stroke-linecap:square;stroke-dasharray:6,8;}
	.st8{fill:#FFFFFF;}
	.st9{fill:#AAAAAA;}
</style>
<g id="Grupo_2154" transform="translate(-235 -3531.461)">
	<g class="st0">
		<path class="st1" d="M299.6,3534.5l3.4-2h1.9v14h-2.7v-10.9l-2.6,1.4V3534.5z"/>
		<path class="st1" d="M313,3532.3c3.6,0,4.9,3.2,4.9,7.2c0,4-1.3,7.2-4.9,7.2c-3.6,0-4.9-3.2-4.9-7.2
			C308.1,3535.5,309.4,3532.3,313,3532.3z M313,3534.7c-1.6,0-2.2,2.2-2.2,4.8c0,2.6,0.6,4.8,2.2,4.8c1.6,0,2.2-2.2,2.2-4.8
			C315.2,3536.8,314.6,3534.7,313,3534.7z"/>
		<path class="st1" d="M325,3532.3c3.6,0,4.9,3.2,4.9,7.2c0,4-1.3,7.2-4.9,7.2c-3.6,0-4.9-3.2-4.9-7.2
			C320.1,3535.5,321.4,3532.3,325,3532.3z M325,3534.7c-1.6,0-2.2,2.2-2.2,4.8c0,2.6,0.6,4.8,2.2,4.8c1.6,0,2.2-2.2,2.2-4.8
			C327.2,3536.8,326.6,3534.7,325,3534.7z"/>
	</g>
	<g class="st0">
		<path class="st1" d="M310.1,3702.5h9.2v1.6l-6,12.4h-2.9l5.7-11.6h-6V3702.5z"/>
		<path class="st1" d="M322.3,3713.1c0.6,0.6,1.5,1.1,2.4,1.1c0.6,0,1.2-0.2,1.7-0.6c0.5-0.4,0.8-1.1,0.8-1.8c0-0.8-0.3-1.4-0.9-1.9
			c-0.4-0.4-1-0.6-1.7-0.6c-0.7,0-1.5,0.3-2.1,0.8l-1.7-0.2l0.9-7.4h7.4v2.4H324l-0.2,2.2c0.3-0.1,0.7-0.1,1.1-0.1
			c1.1,0,2.3,0.3,3.3,1.1c1.1,0.9,1.8,2.3,1.8,3.8c0,2.8-2.3,4.8-5.2,4.8c-1.6,0-3-0.6-4.2-1.8L322.3,3713.1z"/>
	</g>
	<g class="st0">
		<path class="st1" d="M310.3,3888.6c0.6,0.6,1.5,1.1,2.4,1.1c0.6,0,1.2-0.2,1.7-0.6c0.5-0.4,0.8-1.1,0.8-1.8c0-0.8-0.3-1.4-0.9-1.9
			c-0.4-0.4-1-0.6-1.7-0.6c-0.7,0-1.5,0.3-2.1,0.8l-1.7-0.2l0.9-7.4h7.4v2.4H312l-0.2,2.2c0.3-0.1,0.7-0.1,1.1-0.1
			c1.1,0,2.3,0.3,3.3,1.1c1.1,0.9,1.8,2.3,1.8,3.8c0,2.8-2.3,4.8-5.2,4.8c-1.6,0-3-0.6-4.2-1.8L310.3,3888.6z"/>
		<path class="st1" d="M325,3877.7c3.6,0,4.9,3.2,4.9,7.2c0,4-1.3,7.2-4.9,7.2c-3.6,0-4.9-3.2-4.9-7.2
			C320.1,3880.9,321.4,3877.7,325,3877.7z M325,3880.1c-1.6,0-2.2,2.2-2.2,4.8c0,2.6,0.6,4.8,2.2,4.8c1.6,0,2.2-2.2,2.2-4.8
			C327.2,3882.2,326.6,3880.1,325,3880.1z"/>
	</g>
	<g class="st0">
		<path class="st1" d="M309.9,4056.3c0.6-1.9,2.4-3.2,4.4-3.2c2.4,0,4.5,1.8,4.5,4.3c0,1.7-0.9,2.9-1.8,4l-3,3.5h4.9v2.4h-9.1v-1.6
			l4.9-5.6c1.1-1.2,1.4-2,1.4-2.7c0-1-0.8-1.9-1.8-1.9c-0.9,0-1.6,0.6-1.9,1.6L309.9,4056.3z"/>
		<path class="st1" d="M322.3,4064c0.6,0.6,1.5,1.1,2.4,1.1c0.6,0,1.2-0.2,1.7-0.6c0.5-0.4,0.8-1.1,0.8-1.8c0-0.8-0.3-1.4-0.9-1.9
			c-0.4-0.4-1-0.6-1.7-0.6c-0.7,0-1.5,0.3-2.1,0.8l-1.7-0.2l0.9-7.4h7.4v2.4H324l-0.2,2.2c0.3-0.1,0.7-0.1,1.1-0.1
			c1.1,0,2.3,0.3,3.3,1.1c1.1,0.9,1.8,2.3,1.8,3.8c0,2.8-2.3,4.8-5.2,4.8c-1.6,0-3-0.6-4.2-1.8L322.3,4064z"/>
	</g>
	<g class="st0">
		<path class="st1" d="M325,4215.3c3.6,0,4.9,3.2,4.9,7.2c0,4-1.3,7.2-4.9,7.2c-3.6,0-4.9-3.2-4.9-7.2
			C320.1,4218.5,321.4,4215.3,325,4215.3z M325,4217.7c-1.6,0-2.2,2.2-2.2,4.8c0,2.6,0.6,4.8,2.2,4.8c1.6,0,2.2-2.2,2.2-4.8
			C327.2,4219.8,326.6,4217.7,325,4217.7z"/>
	</g>
	<g class="st0">
		<path class="st2" d="M246.8,4027.8h6.2v2h-14v-5.3c0-1.4,0.3-2.2,0.9-2.9c0.7-0.8,1.8-1.4,3-1.4s2.3,0.5,3,1.4
			c0.6,0.7,0.9,1.6,0.9,2.9V4027.8z M244.9,4024.6c0-1-0.2-1.5-0.6-1.8c-0.4-0.3-0.8-0.6-1.4-0.6s-1,0.2-1.4,0.6
			c-0.4,0.4-0.6,0.9-0.6,1.8v3.2h4V4024.6z"/>
		<path class="st2" d="M251.4,4016.5c-1,0.9-2.3,1.5-4.2,1.5H239v-2h8.3c1.3,0,2.1-0.3,2.8-0.9c0.8-0.7,1.2-1.7,1.2-2.9
			s-0.5-2.2-1.2-2.9c-0.6-0.6-1.4-0.9-2.8-0.9H239v-2h8.2c1.9,0,3.2,0.6,4.2,1.5c1.1,1.1,1.8,2.6,1.8,4.3
			C253.2,4013.9,252.5,4015.5,251.4,4016.5z"/>
		<path class="st2" d="M242.7,4001H253v2h-14v-1.4l10.3-8.4H239v-2h14v1.4L242.7,4001z"/>
		<path class="st2" d="M239,3989.1v-9.6h1.9v3.8H253v2h-12.1v3.8H239z"/>
		<path class="st2" d="M249.4,3970.8v5.9l3.6,1.5v2.1l-14-5.8v-1.4l14-5.8v2.1L249.4,3970.8z M247.5,3975.9v-4.3l-5.2,2.2
			L247.5,3975.9z"/>
		<path class="st2" d="M250.2,3965.4c0.7-0.3,1.1-1,1.1-1.9c0-0.6-0.3-1.2-0.8-1.6c-0.3-0.2-0.7-0.4-1.6-0.4H239v-2h9.8
			c1.1,0,1.8,0.2,2.4,0.5c1.2,0.7,2,2,2,3.5c0,1.6-0.8,3-2.3,3.6L250.2,3965.4z"/>
		<path class="st2" d="M244.5,3949.6h1.9v4.6h4.7v-6.2h1.9v8.2h-14v-8h1.9v6h3.6V3949.6z"/>
		<path class="st2" d="M239,3942.1v-9.6h1.9v3.8H253v2h-12.1v3.8H239z"/>
		<path class="st2" d="M238.8,3925.1c0-4,3.1-7,7.2-7c4.1,0,7.2,3,7.2,7s-3.1,7-7.2,7C241.9,3932.1,238.8,3929.1,238.8,3925.1z
			 M251.3,3925.1c0-2.9-2.3-5-5.3-5c-3,0-5.3,2.1-5.3,5c0,2.9,2.3,5,5.3,5C249,3930.1,251.3,3928,251.3,3925.1z"/>
		<path class="st2" d="M239,3917.7v-9.6h1.9v3.8H253v2h-12.1v3.8H239z"/>
		<path class="st2" d="M249.4,3899.4v5.9l3.6,1.5v2.1l-14-5.8v-1.4l14-5.8v2.1L249.4,3899.4z M247.5,3904.6v-4.3l-5.2,2.2
			L247.5,3904.6z"/>
		<path class="st2" d="M251.1,3892v-6.2h1.9v8.2h-14v-2H251.1z"/>
		<path class="st2" d="M238,3878l-3-1.3v-2.1l3,2.1V3878z M239,3878.2v-2h14v2H239z"/>
		<path class="st2" d="M242.7,3870.6H253v2h-14v-1.4l10.3-8.4H239v-2h14v1.4L242.7,3870.6z"/>
		<path class="st2" d="M253,3857.2h-14v-4.2c0-2.2,0.5-3.7,1.3-4.8c1.3-1.7,3.4-2.8,5.7-2.8c2.3,0,4.4,1.1,5.7,2.8
			c0.8,1.1,1.3,2.6,1.3,4.8V3857.2z M242.1,3849.1c-0.8,0.9-1.2,2-1.2,4v2.1h10.2v-2.1c0-2-0.4-3.1-1.2-4c-0.9-1.1-2.4-1.7-3.9-1.7
			C244.4,3847.4,243,3848,242.1,3849.1z"/>
		<path class="st2" d="M239,3842.9v-2h14v2H239z"/>
		<path class="st2" d="M238.8,3831.3c0-2,0.8-3.9,2.2-5.1l1.3,1.3c-0.9,0.8-1.6,2.3-1.6,3.8c0,2.9,2.3,5.1,5.3,5.1
			c3.2,0,5.3-2.3,5.3-5.3c0-1.9-1-3.2-2-4l1.3-1.4c1.5,1.2,2.6,3.3,2.6,5.4c0,4.2-3.1,7.3-7.2,7.3
			C242,3838.4,238.8,3835.4,238.8,3831.3z"/>
		<path class="st2" d="M244.5,3816.9h1.9v4.6h4.7v-6.2h1.9v8.2h-14v-8h1.9v6h3.6V3816.9z"/>
	</g>
	<g class="st0">
		<path class="st3" d="M511,4320.5v-14h4.2c2.2,0,3.7,0.5,4.8,1.3c1.7,1.3,2.8,3.4,2.8,5.7c0,2.3-1.1,4.4-2.8,5.7
			c-1.1,0.8-2.6,1.3-4.8,1.3H511z M519.1,4309.5c-0.9-0.8-2-1.2-4-1.2H513v10.2h2.1c2,0,3.1-0.4,4-1.2c1.1-0.9,1.7-2.4,1.7-3.9
			C520.8,4311.9,520.1,4310.5,519.1,4309.5z"/>
		<path class="st3" d="M531.9,4312v1.9h-4.6v4.7h6.2v1.9h-8.2v-14h8v1.9h-6v3.6H531.9z"/>
		<path class="st3" d="M536.2,4317c0.8,1,2,1.8,3.4,1.8c1.3,0,2.4-0.8,2.4-2.1c0-2.1-3-2.4-4.8-3.6c-1-0.7-1.8-1.6-1.8-3.1
			c0-2,1.8-3.7,4.2-3.7c1.8,0,3,0.8,3.8,1.4l-1.2,1.5c-0.8-0.6-1.6-1-2.5-1c-1.2,0-2.3,0.7-2.3,1.9c0,1.8,3,2.2,4.8,3.4
			c0.9,0.6,1.8,1.6,1.8,3.2c0,2.5-1.9,4.1-4.3,4.1c-1.9,0-3.7-0.8-4.9-2.3L536.2,4317z"/>
		<path class="st3" d="M551.7,4320.5h-1.4l-5.5-14h2.1l4.1,10.6l4.1-10.6h2.1L551.7,4320.5z"/>
		<path class="st3" d="M559.2,4317.9c0.8,0,1.4,0.6,1.4,1.4s-0.6,1.4-1.4,1.4c-0.8,0-1.4-0.6-1.4-1.4S558.4,4317.9,559.2,4317.9z"/>
		<path class="st3" d="M575.2,4312v1.9h-4.6v4.7h6.2v1.9h-8.2v-14h8v1.9h-6v3.6H575.2z"/>
		<path class="st3" d="M579.6,4317c0.8,1,2,1.8,3.4,1.8c1.3,0,2.4-0.8,2.4-2.1c0-2.1-3-2.4-4.8-3.6c-1-0.7-1.8-1.6-1.8-3.1
			c0-2,1.8-3.7,4.2-3.7c1.8,0,3,0.8,3.8,1.4l-1.2,1.5c-0.8-0.6-1.6-1-2.5-1c-1.2,0-2.3,0.7-2.3,1.9c0,1.8,3,2.2,4.8,3.4
			c0.9,0.6,1.8,1.6,1.8,3.2c0,2.5-1.9,4.1-4.3,4.1c-1.9,0-3.7-0.8-4.9-2.3L579.6,4317z"/>
		<path class="st3" d="M588.1,4306.5h9.6v1.9h-3.8v12.1h-2v-12.1h-3.8V4306.5z"/>
		<path class="st3" d="M601.2,4310.9c0.8,0,1.4,0.6,1.4,1.4c0,0.8-0.6,1.4-1.4,1.4c-0.8,0-1.4-0.6-1.4-1.4
			C599.8,4311.5,600.5,4310.9,601.2,4310.9z M601.2,4317.9c0.8,0,1.4,0.6,1.4,1.4s-0.6,1.4-1.4,1.4c-0.8,0-1.4-0.6-1.4-1.4
			S600.5,4317.9,601.2,4317.9z"/>
		<path class="st3" d="M609.2,4309.4c0.7-2.6,2.9-3.2,4.1-3.2c2.4,0,4.3,1.9,4.3,4.2c0,1.6-0.8,2.9-1.8,4.1l-3.5,4h5.3v1.9h-8.4
			v-1.3l4.8-5.5c1.1-1.3,1.6-2,1.6-3.2c0-1.2-0.9-2.3-2.2-2.3c-1.3,0-2,0.8-2.4,1.9L609.2,4309.4z"/>
		<path class="st3" d="M624.7,4306.3c3.5,0,4.8,3.2,4.8,7.2c0,4-1.3,7.2-4.8,7.2c-3.5,0-4.8-3.2-4.8-7.2
			C619.9,4309.5,621.2,4306.3,624.7,4306.3z M624.7,4308.2c-2.2,0-2.8,2.5-2.8,5.3c0,2.8,0.6,5.3,2.8,5.3c2.2,0,2.8-2.5,2.8-5.3
			C627.5,4310.7,626.9,4308.2,624.7,4308.2z"/>
		<path class="st3" d="M635.2,4318.1l-2.4,5.2h-1.3l1.5-5.2H635.2z"/>
		<path class="st3" d="M638.7,4320.5l6-12.1h-6.4v-1.9h8.8v1.3l-6.3,12.7H638.7z"/>
	</g>
	<g class="st0">
		<path class="st3" d="M898.6,4320.5v-14h4.2c2.2,0,3.7,0.5,4.8,1.3c1.7,1.3,2.8,3.4,2.8,5.7c0,2.3-1.1,4.4-2.8,5.7
			c-1.1,0.8-2.6,1.3-4.8,1.3H898.6z M906.7,4309.5c-0.9-0.8-2-1.2-4-1.2h-2.1v10.2h2.1c2,0,3.1-0.4,4-1.2c1.1-0.9,1.7-2.4,1.7-3.9
			C908.4,4311.9,907.7,4310.5,906.7,4309.5z"/>
		<path class="st3" d="M919.5,4312v1.9h-4.6v4.7h6.2v1.9h-8.2v-14h8v1.9h-6v3.6H919.5z"/>
		<path class="st3" d="M923.8,4317c0.8,1,2,1.8,3.4,1.8c1.3,0,2.4-0.8,2.4-2.1c0-2.1-3-2.4-4.8-3.6c-1-0.7-1.8-1.6-1.8-3.1
			c0-2,1.8-3.7,4.2-3.7c1.8,0,3,0.8,3.8,1.4l-1.2,1.5c-0.8-0.6-1.6-1-2.5-1c-1.2,0-2.3,0.7-2.3,1.9c0,1.8,3,2.2,4.8,3.4
			c0.9,0.6,1.8,1.6,1.8,3.2c0,2.5-1.9,4.1-4.3,4.1c-1.9,0-3.7-0.8-4.9-2.3L923.8,4317z"/>
		<path class="st3" d="M939.3,4320.5h-1.4l-5.5-14h2.1l4.1,10.6l4.1-10.6h2.1L939.3,4320.5z"/>
		<path class="st3" d="M946.8,4317.9c0.8,0,1.4,0.6,1.4,1.4s-0.6,1.4-1.4,1.4s-1.4-0.6-1.4-1.4S946,4317.9,946.8,4317.9z"/>
		<path class="st3" d="M962.8,4312v1.9h-4.6v4.7h6.2v1.9h-8.2v-14h8v1.9h-6v3.6H962.8z"/>
		<path class="st3" d="M967.2,4317c0.8,1,2,1.8,3.4,1.8c1.3,0,2.4-0.8,2.4-2.1c0-2.1-3-2.4-4.8-3.6c-1-0.7-1.8-1.6-1.8-3.1
			c0-2,1.8-3.7,4.2-3.7c1.8,0,3,0.8,3.8,1.4l-1.2,1.5c-0.8-0.6-1.6-1-2.5-1c-1.2,0-2.3,0.7-2.3,1.9c0,1.8,3,2.2,4.8,3.4
			c0.9,0.6,1.8,1.6,1.8,3.2c0,2.5-1.9,4.1-4.3,4.1c-1.9,0-3.7-0.8-4.9-2.3L967.2,4317z"/>
		<path class="st3" d="M975.7,4306.5h9.6v1.9h-3.8v12.1h-2v-12.1h-3.8V4306.5z"/>
		<path class="st3" d="M988.8,4310.9c0.8,0,1.4,0.6,1.4,1.4c0,0.8-0.6,1.4-1.4,1.4s-1.4-0.6-1.4-1.4
			C987.4,4311.5,988.1,4310.9,988.8,4310.9z M988.8,4317.9c0.8,0,1.4,0.6,1.4,1.4s-0.6,1.4-1.4,1.4s-1.4-0.6-1.4-1.4
			S988.1,4317.9,988.8,4317.9z"/>
		<path class="st3" d="M996.8,4309.4c0.7-2.6,2.9-3.2,4.1-3.2c2.4,0,4.3,1.9,4.3,4.2c0,1.6-0.8,2.9-1.8,4.1l-3.5,4h5.3v1.9h-8.4
			v-1.3l4.8-5.5c1.1-1.3,1.6-2,1.6-3.2c0-1.2-0.9-2.3-2.2-2.3c-1.3,0-2,0.8-2.4,1.9L996.8,4309.4z"/>
		<path class="st3" d="M1012.3,4306.3c3.5,0,4.8,3.2,4.8,7.2c0,4-1.3,7.2-4.8,7.2s-4.8-3.2-4.8-7.2
			C1007.5,4309.5,1008.8,4306.3,1012.3,4306.3z M1012.3,4308.2c-2.2,0-2.8,2.5-2.8,5.3c0,2.8,0.6,5.3,2.8,5.3s2.8-2.5,2.8-5.3
			C1015.1,4310.7,1014.5,4308.2,1012.3,4308.2z"/>
	</g>
	<g class="st0">
		<path class="st3" d="M1248.4,4320.5v-14h4.2c2.2,0,3.7,0.5,4.8,1.3c1.7,1.3,2.8,3.4,2.8,5.7c0,2.3-1.1,4.4-2.8,5.7
			c-1.1,0.8-2.6,1.3-4.8,1.3H1248.4z M1256.6,4309.5c-0.9-0.8-2-1.2-4-1.2h-2.1v10.2h2.1c2,0,3.1-0.4,4-1.2c1.1-0.9,1.7-2.4,1.7-3.9
			C1258.3,4311.9,1257.6,4310.5,1256.6,4309.5z"/>
		<path class="st3" d="M1269.4,4312v1.9h-4.6v4.7h6.2v1.9h-8.2v-14h8v1.9h-6v3.6H1269.4z"/>
		<path class="st3" d="M1273.7,4317c0.8,1,2,1.8,3.4,1.8c1.3,0,2.4-0.8,2.4-2.1c0-2.1-3-2.4-4.8-3.6c-1-0.7-1.8-1.6-1.8-3.1
			c0-2,1.8-3.7,4.2-3.7c1.8,0,3,0.8,3.8,1.4l-1.2,1.5c-0.8-0.6-1.6-1-2.5-1c-1.2,0-2.3,0.7-2.3,1.9c0,1.8,3,2.2,4.8,3.4
			c0.9,0.6,1.8,1.6,1.8,3.2c0,2.5-1.9,4.1-4.3,4.1c-1.9,0-3.7-0.8-4.9-2.3L1273.7,4317z"/>
		<path class="st3" d="M1289.2,4320.5h-1.4l-5.5-14h2.1l4.1,10.6l4.1-10.6h2.1L1289.2,4320.5z"/>
		<path class="st3" d="M1296.7,4317.9c0.8,0,1.4,0.6,1.4,1.4s-0.6,1.4-1.4,1.4c-0.8,0-1.4-0.6-1.4-1.4S1295.9,4317.9,1296.7,4317.9z
			"/>
		<path class="st3" d="M1312.7,4312v1.9h-4.6v4.7h6.2v1.9h-8.2v-14h8v1.9h-6v3.6H1312.7z"/>
		<path class="st3" d="M1317.1,4317c0.8,1,2,1.8,3.4,1.8c1.3,0,2.4-0.8,2.4-2.1c0-2.1-3-2.4-4.8-3.6c-1-0.7-1.8-1.6-1.8-3.1
			c0-2,1.8-3.7,4.2-3.7c1.8,0,3,0.8,3.8,1.4l-1.2,1.5c-0.8-0.6-1.6-1-2.5-1c-1.2,0-2.3,0.7-2.3,1.9c0,1.8,3,2.2,4.8,3.4
			c0.9,0.6,1.8,1.6,1.8,3.2c0,2.5-1.9,4.1-4.3,4.1c-1.9,0-3.7-0.8-4.9-2.3L1317.1,4317z"/>
		<path class="st3" d="M1325.6,4306.5h9.6v1.9h-3.8v12.1h-2v-12.1h-3.8V4306.5z"/>
		<path class="st3" d="M1338.7,4310.9c0.8,0,1.4,0.6,1.4,1.4c0,0.8-0.6,1.4-1.4,1.4c-0.8,0-1.4-0.6-1.4-1.4
			C1337.3,4311.5,1338,4310.9,1338.7,4310.9z M1338.7,4317.9c0.8,0,1.4,0.6,1.4,1.4s-0.6,1.4-1.4,1.4c-0.8,0-1.4-0.6-1.4-1.4
			S1338,4317.9,1338.7,4317.9z"/>
		<path class="st3" d="M1346.3,4310.3v-2l3.3-1.9h1.4v14h-2V4309L1346.3,4310.3z"/>
		<path class="st3" d="M1355.6,4317.3c0.5,0.9,1.5,1.5,2.6,1.5c1.6,0,2.9-1.2,2.9-2.9c0-1.7-1.3-2.9-3-2.9c-0.8,0-1.4,0.2-1.6,0.2
			v-1.3l3-3.5h-4.8v-1.9h7.8v1.3l-3.1,3.5c2.1,0.3,3.8,2.2,3.8,4.6c0,2.8-2.2,4.8-4.8,4.8c-1.9,0-3.6-0.8-4.4-2.4L1355.6,4317.3z"/>
		<path class="st3" d="M1368.4,4318.1l-2.4,5.2h-1.3l1.5-5.2H1368.4z"/>
		<path class="st3" d="M1376,4311.2c0.3,0,0.5,0,0.8,0c2.6,0,4.6,2,4.6,4.7c0,2.7-2.1,4.8-4.9,4.8c-2.8,0-4.8-2.1-4.8-4.7
			c0-0.7,0.1-1.3,0.5-2.1c0.3-0.6,0.8-1.4,1.3-2.3l3.3-5h2.3L1376,4311.2z M1373.7,4315.9c0,1.7,1.2,2.9,2.9,2.9
			c1.7,0,2.9-1.3,2.9-2.9c0-1.6-1.2-2.9-2.8-2.9c-0.9,0-1.7,0.3-2.2,0.7C1373.9,4314.4,1373.7,4315.1,1373.7,4315.9z"/>
	</g>
	<g class="st0">
		<path class="st1" d="M510.5,4276.3v7.1h-3.4V4266h6.6c2.2,0,3.6,0.5,4.5,1.6c0.9,0.9,1.4,2.2,1.4,3.6s-0.5,2.7-1.4,3.6
			c-0.9,1-2.3,1.5-4.5,1.5H510.5z M513.5,4273.3c1.1,0,1.7-0.3,2.1-0.7c0.4-0.4,0.6-0.9,0.6-1.5s-0.2-1.1-0.6-1.5
			c-0.4-0.4-1-0.7-2.1-0.7h-3v4.4H513.5z"/>
		<path class="st1" d="M522.1,4266h3.4v17.5h-3.4V4266z"/>
		<path class="st1" d="M529.5,4266h3.4v14.5h7.4v3h-10.7V4266z"/>
		<path class="st1" d="M542,4283.5l7.5-17.5h2.4l7.5,17.5h-3.5l-1.6-3.9h-7l-1.6,3.9H542z M548.4,4276.6h4.4l-2.2-5.2L548.4,4276.6z
			"/>
		<path class="st1" d="M564.7,4275.7v7.7h-3.4V4266h6.4c1.8,0,2.9,0.5,3.8,1.3c0.9,0.9,1.5,2.2,1.5,3.6s-0.6,2.7-1.5,3.6
			c-0.5,0.5-1,0.8-1.8,1l6.5,8h-4.2l-6.2-7.7H564.7z M567.5,4272.7c1,0,1.4-0.2,1.7-0.5s0.5-0.8,0.5-1.3c0-0.5-0.2-1-0.5-1.3
			c-0.3-0.3-0.7-0.5-1.7-0.5h-2.8v3.7H567.5z"/>
		<path class="st1" d="M581.5,4269v3.6h5.4v3h-5.4v4.9h7.4v3h-10.7V4266h10.5v3H581.5z"/>
		<path class="st1" d="M592.7,4278.8c1,1.1,2.5,1.9,4.1,1.9c1.5,0,2.5-0.9,2.5-2.2c0-2.2-3.2-2.5-5.6-3.9c-1.4-0.8-2.5-2-2.5-4
			c0-3.1,2.9-4.9,5.8-4.9c1.8,0,3.4,0.4,5.1,1.7l-1.7,2.5c-0.7-0.6-1.9-1.1-3-1.1c-1.3,0-2.7,0.5-2.7,1.9c0,2.8,8.1,1.9,8.1,7.8
			c0,3.1-2.8,5.2-5.9,5.2c-2.3,0-4.5-1-6.3-2.6L592.7,4278.8z"/>
		<path class="st1" d="M619.8,4287l-2.4,1.7c-2.3-3.2-3.5-7.2-3.5-11.5c0-4.2,1.3-8.2,3.5-11.5l2.4,1.7c-1.9,2.7-3,6.2-3,9.8
			C616.9,4280.8,617.9,4284.3,619.8,4287z"/>
		<path class="st1" d="M623.1,4268.5l4.2-2.5h2.4v17.5h-3.4v-13.6l-3.2,1.8V4268.5z"/>
		<path class="st1" d="M635.7,4279.3c0.7,0.8,1.8,1.4,3,1.4c0.8,0,1.5-0.3,2.1-0.8c0.6-0.5,1-1.3,1-2.2c0-0.9-0.4-1.8-1.1-2.4
			c-0.5-0.5-1.3-0.7-2.1-0.7c-0.8,0-1.8,0.3-2.6,1l-2.1-0.3l1.1-9.3h9.2v3h-6.5l-0.3,2.7c0.4-0.1,0.9-0.1,1.3-0.1
			c1.4,0,2.8,0.3,4.1,1.3c1.4,1.1,2.2,2.9,2.2,4.7c0,3.4-2.9,6-6.4,6c-2,0-3.8-0.7-5.3-2.2L635.7,4279.3z"/>
		<path class="st1" d="M648.4,4267.4l2.4-1.7c2.3,3.2,3.5,7.2,3.5,11.5c0,4.2-1.3,8.2-3.5,11.5l-2.4-1.7c1.9-2.7,3-6.2,3-9.8
			C651.4,4273.6,650.3,4270.1,648.4,4267.4z"/>
	</g>
	<g class="st0">
		<path class="st1" d="M842.6,4274.7c0,3.4,2.6,6,6,6c2.3,0,3.9-1.1,4.9-2.4l2.3,2.1c-1.5,2-4.1,3.3-7.3,3.3c-5.4,0-9.3-4-9.3-9
			c0-5,3.8-9,9.2-9c2.6,0,4.8,1,6.4,2.5l-2.2,2.3c-1-1-2.5-1.8-4.2-1.8C845.1,4268.7,842.6,4271.4,842.6,4274.7z"/>
		<path class="st1" d="M861.7,4269v3.6h5.4v3h-5.4v4.9h7.4v3h-10.7V4266h10.5v3H861.7z"/>
		<path class="st1" d="M872.1,4266h2.4l9.7,11.4V4266h3.4v17.5h-2.4l-9.7-11.4v11.4h-3.4V4266z"/>
		<path class="st1" d="M902.8,4266v3h-4.6v14.5h-3.4V4269h-4.6v-3H902.8z"/>
		<path class="st1" d="M908.8,4275.7v7.7h-3.4V4266h6.4c1.8,0,2.9,0.5,3.8,1.3c0.9,0.9,1.5,2.2,1.5,3.6s-0.6,2.7-1.5,3.6
			c-0.5,0.5-1,0.8-1.8,1l6.5,8h-4.2l-6.2-7.7H908.8z M911.6,4272.7c1,0,1.4-0.2,1.7-0.5c0.3-0.3,0.5-0.8,0.5-1.3
			c0-0.5-0.2-1-0.5-1.3c-0.3-0.3-0.7-0.5-1.7-0.5h-2.8v3.7H911.6z"/>
		<path class="st1" d="M921.3,4283.5l7.5-17.5h2.4l7.5,17.5h-3.5l-1.6-3.9h-7l-1.7,3.9H921.3z M927.8,4276.6h4.4l-2.2-5.2
			L927.8,4276.6z"/>
		<path class="st1" d="M940.7,4266h3.4v14.5h7.4v3h-10.7V4266z"/>
		<path class="st1" d="M954.1,4266h3.4v17.5h-3.4V4266z"/>
		<path class="st1" d="M960.4,4281.5l8.5-12.5h-7.7v-3h12.2v2l-8.5,12.5h9v3h-13.5V4281.5z"/>
		<path class="st1" d="M975.7,4283.5l7.5-17.5h2.4l7.5,17.5h-3.5l-1.7-3.9h-7l-1.6,3.9H975.7z M982.1,4276.6h4.4l-2.2-5.2
			L982.1,4276.6z"/>
		<path class="st1" d="M1000.6,4266c2.8,0,4.6,0.6,6,1.7c2.2,1.6,3.5,4.2,3.5,7.1s-1.3,5.5-3.5,7.1c-1.4,1-3.2,1.6-6,1.6h-5.5V4266
			H1000.6z M1005.4,4270.9c-1-1.2-2.4-1.9-4.5-1.9h-2.5v11.5h2.5c2.1,0,3.5-0.7,4.5-2c0.8-1,1.3-2.3,1.3-3.8
			C1006.7,4273.3,1006.2,4271.9,1005.4,4270.9z"/>
		<path class="st1" d="M1010.2,4283.5l7.5-17.5h2.4l7.5,17.5h-3.5l-1.7-3.9h-7l-1.6,3.9H1010.2z M1016.6,4276.6h4.4l-2.2-5.2
			L1016.6,4276.6z"/>
		<path class="st1" d="M1030.8,4278.8c1,1.1,2.5,1.9,4.1,1.9c1.5,0,2.5-0.9,2.5-2.2c0-2.2-3.2-2.5-5.6-3.9c-1.4-0.8-2.5-2-2.5-4
			c0-3.1,2.9-4.9,5.8-4.9c1.8,0,3.4,0.4,5.1,1.7l-1.7,2.5c-0.7-0.6-1.9-1.1-3-1.1c-1.3,0-2.7,0.5-2.7,1.9c0,2.8,8.1,1.9,8.1,7.8
			c0,3.1-2.8,5.2-5.9,5.2c-2.3,0-4.5-1-6.3-2.6L1030.8,4278.8z"/>
		<path class="st1" d="M1057.9,4287l-2.4,1.7c-2.3-3.2-3.5-7.2-3.5-11.5c0-4.2,1.3-8.2,3.5-11.5l2.4,1.7c-1.9,2.7-3,6.2-3,9.8
			C1054.9,4280.8,1056,4284.3,1057.9,4287z"/>
		<path class="st1" d="M1060.9,4266h11.5v2l-7.5,15.5h-3.6l7.1-14.5h-7.5V4266z"/>
		<path class="st1" d="M1075.1,4267.4l2.4-1.7c2.3,3.2,3.5,7.2,3.5,11.5c0,4.2-1.3,8.2-3.5,11.5l-2.4-1.7c1.9-2.7,3-6.2,3-9.8
			C1078.1,4273.6,1077,4270.1,1075.1,4267.4z"/>
	</g>
	<g class="st0">
		<path class="st1" d="M1246.2,4266h2.4l9.7,11.4V4266h3.4v17.5h-2.4l-9.7-11.4v11.4h-3.4V4266z"/>
		<path class="st1" d="M1267.9,4281.9c-1.5-1.3-2.2-3.1-2.2-5.8V4266h3.4v10.4c0,1.6,0.4,2.6,1.2,3.2c0.8,0.7,1.8,1.1,3,1.1
			c1.2,0,2.2-0.4,3-1.1c0.7-0.7,1.1-1.6,1.1-3.2V4266h3.4v10.1c0,2.7-0.8,4.5-2.2,5.8c-1.3,1.2-3.3,1.8-5.2,1.8
			S1269.2,4283.1,1267.9,4281.9z"/>
		<path class="st1" d="M1287.9,4269v3.6h5.4v3h-5.4v4.9h7.4v3h-10.7V4266h10.5v3H1287.9z"/>
		<path class="st1" d="M1296.9,4266h3.5l4.8,11.9l4.8-11.9h3.5l-7.1,17.5h-2.4L1296.9,4266z"/>
		<path class="st1" d="M1312.1,4283.5l7.5-17.5h2.4l7.5,17.5h-3.5l-1.6-3.9h-7l-1.7,3.9H1312.1z M1318.6,4276.6h4.4l-2.2-5.2
			L1318.6,4276.6z"/>
		<path class="st1" d="M1332.7,4278.8c1,1.1,2.5,1.9,4.1,1.9c1.5,0,2.5-0.9,2.5-2.2c0-2.2-3.2-2.5-5.6-3.9c-1.4-0.8-2.5-2-2.5-4
			c0-3.1,2.9-4.9,5.8-4.9c1.8,0,3.4,0.4,5.1,1.7l-1.8,2.5c-0.7-0.6-1.9-1.1-3-1.1c-1.3,0-2.7,0.5-2.7,1.9c0,2.8,8.1,1.9,8.1,7.8
			c0,3.1-2.8,5.2-5.9,5.2c-2.3,0-4.5-1-6.3-2.6L1332.7,4278.8z"/>
		<path class="st1" d="M1359.9,4287l-2.4,1.7c-2.3-3.2-3.5-7.2-3.5-11.5c0-4.2,1.3-8.2,3.5-11.5l2.4,1.7c-1.9,2.7-3,6.2-3,9.8
			C1356.9,4280.8,1358,4284.3,1359.9,4287z"/>
		<path class="st1" d="M1363.1,4268.5l4.2-2.5h2.4v17.5h-3.4v-13.6l-3.2,1.8V4268.5z"/>
		<path class="st1" d="M1375.7,4279.3c0.8,0.8,1.8,1.4,3,1.4c0.8,0,1.5-0.3,2.1-0.8c0.6-0.5,1-1.3,1-2.2c0-0.9-0.4-1.8-1.1-2.4
			c-0.5-0.5-1.3-0.7-2.1-0.7c-0.8,0-1.8,0.3-2.6,1l-2.1-0.3l1.1-9.3h9.2v3h-6.5l-0.3,2.7c0.4-0.1,0.9-0.1,1.3-0.1
			c1.3,0,2.8,0.3,4.1,1.3c1.4,1.1,2.2,2.9,2.2,4.7c0,3.4-2.9,6-6.4,6c-2,0-3.8-0.7-5.3-2.2L1375.7,4279.3z"/>
		<path class="st1" d="M1388.4,4267.4l2.4-1.7c2.3,3.2,3.5,7.2,3.5,11.5c0,4.2-1.3,8.2-3.5,11.5l-2.4-1.7c1.9-2.7,3-6.2,3-9.8
			C1391.4,4273.6,1390.3,4270.1,1388.4,4267.4z"/>
	</g>
	<path id="Trazado_2789" class="st4" d="M356.2,4230.8h1207.6"/>
	<path id="Trazado_2790" class="st5" d="M356.2,4057.3h1207.6"/>
	<path id="Trazado_2791" class="st5" d="M356.2,3886.1h1207.6"/>
	<path id="Trazado_2792" class="st5" d="M356.2,3712.6h1207.6"/>
	<g id="Grupo_2100" transform="translate(560.138 3691.346)">
		<path id="Trazado_2793" class="st1" d="M36,18c0,10-8.1,18-18,18S0,28,0,18S8.1,0,18,0C28,0,36,8.1,36,18C36,18,36,18,36,18z"/>
	</g>
	<g id="Grupo_2101" transform="translate(560.138 3790.221)">
		<path id="Trazado_2794" class="st1" d="M36,18c0,10-8.1,18-18,18S0,28,0,18S8.1,0,18,0S36,8.1,36,18L36,18z"/>
	</g>
	<g id="Grupo_2102" transform="translate(560.138 3798.518)">
		<path id="Trazado_2795" class="st1" d="M36,18c0,10-8.1,18-18,18S0,28,0,18S8.1,0,18,0S36,8.1,36,18L36,18z"/>
	</g>
	<g id="Grupo_2103" transform="translate(560.138 3820.645)">
		<path id="Trazado_2796" class="st1" d="M36,18c0,10-8.1,18-18,18S0,28,0,18S8.1,0,18,0S36,8.1,36,18L36,18z"/>
	</g>
	<g id="Grupo_2104" transform="translate(560.138 3891.859)">
		<path id="Trazado_2797" class="st1" d="M36,18c0,10-8.1,18-18,18S0,28,0,18S8.1,0,18,0C28,0,36,8.1,36,18C36,18,36,18,36,18z"/>
	</g>
	<g id="Grupo_2105" transform="translate(560.138 3991.426)">
		<path id="Trazado_2798" class="st1" d="M36,18c0,10-8.1,18-18,18S0,28,0,18S8.1,0,18,0S36,8.1,36,18L36,18z"/>
	</g>
	<g id="Grupo_2106" transform="translate(560.138 4015.627)">
		<path id="Trazado_2799" class="st1" d="M36,18c0,10-8.1,18-18,18S0,28,0,18S8.1,0,18,0S36,8.1,36,18L36,18z"/>
	</g>
	<g id="Grupo_2107" transform="translate(560.138 4032.221)">
		<path id="Trazado_2800" class="st1" d="M36,18c0,10-8.1,18-18,18S0,28,0,18S8.1,0,18,0S36,8.1,36,18L36,18z"/>
	</g>
	<g id="Grupo_2108" transform="translate(560.138 4059.877)">
		<path id="Trazado_2801" class="st1" d="M36,18c0,10-8.1,18-18,18S0,28,0,18C0,8.1,8.1,0,18,0h0C28,0,36,8.1,36,18z"/>
	</g>
	<g id="Grupo_2109" transform="translate(560.138 4059.877)">
		<path id="Trazado_2802" class="st1" d="M36,18c0,10-8.1,18-18,18S0,28,0,18C0,8.1,8.1,0,18,0h0C28,0,36,8.1,36,18z"/>
	</g>
	<g id="Grupo_2110" transform="translate(560.138 4079.237)">
		<path id="Trazado_2803" class="st1" d="M36,18c0,10-8.1,18-18,18S0,28,0,18S8.1,0,18,0c0,0,0,0,0,0C28,0,36,8.1,36,18
			C36,18,36,18,36,18z"/>
	</g>
	<g id="Grupo_2111" transform="translate(560.138 4102.055)">
		<path id="Trazado_2804" class="st1" d="M36,18c0,10-8.1,18-18,18S0,28,0,18C0,8.1,8.1,0,18,0h0C28,0,36,8.1,36,18z"/>
	</g>
	<g id="Grupo_2112" transform="translate(560.138 4107.586)">
		<path id="Trazado_2805" class="st1" d="M36,18c0,10-8.1,18-18,18C8.1,36,0,28,0,18S8.1,0,18,0C28,0,36,8.1,36,18L36,18z"/>
	</g>
	<g id="Grupo_2113" transform="translate(560.138 4125.564)">
		<path id="Trazado_2806" class="st1" d="M36,18c0,10-8.1,18-18,18S0,28,0,18S8.1,0,18,0c0,0,0,0,0,0C28,0,36,8.1,36,18z"/>
	</g>
	<g id="Grupo_2114" transform="translate(560.138 4133.168)">
		<path id="Trazado_2807" class="st1" d="M36,18c0,10-8.1,18-18,18S0,28,0,18C0,8.1,8.1,0,18,0h0C28,0,36,8.1,36,18
			C36,18,36,18,36,18z"/>
	</g>
	<g id="Grupo_2115" transform="translate(926.977 4169.123)">
		<path id="Trazado_2808" class="st1" d="M36,18c0,10-8.1,18-18,18S0,28,0,18S8.1,0,18,0h0C28,0,36,8.1,36,18C36,18,36,18,36,18z"/>
	</g>
	<g id="Grupo_2116" transform="translate(926.977 4159.444)">
		<path id="Trazado_2809" class="st1" d="M36,18c0,10-8.1,18-18,18S0,28,0,18S8.1,0,18,0h0C28,0,36,8.1,36,18z"/>
	</g>
	<g id="Grupo_2117" transform="translate(926.977 4151.146)">
		<path id="Trazado_2810" class="st1" d="M36,18c0,10-8.1,18-18,18S0,28,0,18S8.1,0,18,0h0C28,0,36,8.1,36,18z"/>
	</g>
	<g id="Grupo_2118" transform="translate(926.977 4093.758)">
		<path id="Trazado_2811" class="st1" d="M36,18c0,10-8.1,18-18,18S0,28,0,18S8.1,0,18,0h0C28,0,36,8.1,36,18z"/>
	</g>
	<g id="Grupo_2119" transform="translate(926.977 3963.078)">
		<path id="Trazado_2812" class="st1" d="M36,18c0,10-8.1,18-18,18C8.1,36,0,28,0,18S8.1,0,18,0l0,0C28,0,36,8.1,36,18z"/>
	</g>
	<g id="Grupo_2120" transform="translate(926.977 3960.313)">
		<path id="Trazado_2813" class="st1" d="M36,18c0,10-8.1,18-18,18C8.1,36,0,28,0,18S8.1,0,18,0l0,0C28,0,36,8.1,36,18z"/>
	</g>
	<g id="Grupo_2121" transform="translate(926.977 3800.593)">
		<path id="Trazado_2814" class="st1" d="M36,18c0,10-8.1,18-18,18C8.1,36,0,28,0,18S8.1,0,18,0l0,0C28,0,36,8.1,36,18z"/>
	</g>
	<g id="Grupo_2122" transform="translate(1293.814 4167.051)">
		<path id="Trazado_2815" class="st1" d="M36,18c0,10-8.1,18-18,18S0,28,0,18S8.1,0,18,0c0,0,0,0,0,0C28,0,36,8.1,36,18z"/>
	</g>
	<g id="Grupo_2123" transform="translate(1293.814 4151.146)">
		<path id="Trazado_2816" class="st1" d="M36,18c0,10-8.1,18-18,18S0,28,0,18S8.1,0,18,0c0,0,0,0,0,0C28,0,36,8.1,36,18z"/>
	</g>
	<g id="Grupo_2124" transform="translate(1293.814 4093.065)">
		<path id="Trazado_2817" class="st1" d="M36,18c0,10-8.1,18-18,18S0,28,0,18S8.1,0,18,0c0,0,0,0,0,0C28,0,36,8.1,36,18
			C36,18,36,18,36,18z"/>
	</g>
	<g id="Grupo_2125" transform="translate(1293.814 4090.993)">
		<path id="Trazado_2818" class="st1" d="M36,18c0,10-8.1,18-18,18S0,28,0,18S8.1,0,18,0c0,0,0,0,0,0C28,0,36,8.1,36,18z"/>
	</g>
	<g id="Grupo_2126" transform="translate(1293.814 4086.843)">
		<path id="Trazado_2819" class="st1" d="M36,18c0,10-8.1,18-18,18S0,28,0,18S8.1,0,18,0c0,0,0,0,0,0C28,0,36,8.1,36,18z"/>
	</g>
	<g id="Grupo_2127" transform="translate(1293.814 4073.015)">
		<path id="Trazado_2820" class="st1" d="M36,18c0,10-8.1,18-18,18S0,28,0,18S8.1,0,18,0c0,0,0,0,0,0C28,0,36,8.1,36,18z"/>
	</g>
	<g id="Grupo_2128" transform="translate(1293.814 4061.952)">
		<path id="Trazado_2821" class="st1" d="M36,18c0,10-8.1,18-18,18S0,28,0,18S8.1,0,18,0c0,0,0,0,0,0C28,0,36,8.1,36,18z"/>
	</g>
	<g id="Grupo_2129" transform="translate(1293.814 4033.604)">
		<path id="Trazado_2822" class="st1" d="M36,18c0,10-8.1,18-18,18C8.1,36,0,28,0,18S8.1,0,18,0c0,0,0,0,0,0C28,0,36,8.1,36,18z"/>
	</g>
	<g id="Grupo_2130" transform="translate(1293.814 4015.627)">
		<path id="Trazado_2823" class="st1" d="M36,18c0,10-8.1,18-18,18C8.1,36,0,28,0,18S8.1,0,18,0c0,0,0,0,0,0C28,0,36,8.1,36,18z"/>
	</g>
	<g id="Grupo_2131" transform="translate(1293.814 4012.169)">
		<path id="Trazado_2824" class="st1" d="M36,18c0,10-8.1,18-18,18C8.1,36,0,28,0,18C0,8.1,8.1,0,18,0c0,0,0,0,0,0
			C28,0,36,8.1,36,18z"/>
	</g>
	<g id="Grupo_2132" transform="translate(1293.814 4000.416)">
		<path id="Trazado_2825" class="st1" d="M36,18c0,10-8.1,18-18,18C8.1,36,0,28,0,18C0,8.1,8.1,0,18,0c0,0,0,0,0,0
			C28,0,36,8.1,36,18z"/>
	</g>
	<g id="Grupo_2133" transform="translate(1293.814 3977.598)">
		<path id="Trazado_2826" class="st1" d="M36,18c0,10-8.1,18-18,18C8.1,36,0,28,0,18C0,8.1,8.1,0,18,0C28,0,36,8.1,36,18
			C36,18,36,18,36,18z"/>
	</g>
	<g id="Grupo_2134" transform="translate(1293.814 3969.301)">
		<path id="Trazado_2827" class="st1" d="M36,18c0,10-8.1,18-18,18C8.1,36,0,28,0,18S8.1,0,18,0c0,0,0,0,0,0C28,0,36,8.1,36,18z"/>
	</g>
	<g id="Grupo_2135" transform="translate(1293.814 3866.277)">
		<path id="Trazado_2828" class="st1" d="M36,18c0,10-8.1,18-18,18C8.1,36,0,28,0,18S8.1,0,18,0c0,0,0,0,0,0C28,0,36,8.1,36,18z"/>
	</g>
	<g id="Grupo_2136" transform="translate(1293.814 3826.867)">
		<path id="Trazado_2829" class="st1" d="M36,18c0,10-8.1,18-18,18C8.1,36,0,28,0,18S8.1,0,18,0c0,0,0,0,0,0C28,0,36,8.1,36,18z"/>
	</g>
	<path id="Trazado_2830" class="st5" d="M356.2,3541.8h1207.6"/>
	<g class="st0">
		<path class="st6" d="M663.5,3993.6c0.9,1.2,2.3,2.1,3.9,2.1c2,0,3.9-1.6,3.9-3.8c0-2.2-1.8-3.8-4.1-3.8c-0.8,0-1.7,0.2-2.5,0.6
			v-2.4l3.9-4.7h-7v-3.6h12.7v2.4l-3.8,4.7c2.9,1.1,4.9,3.6,4.9,6.8c0,4.4-3.5,7.4-7.8,7.4c-2.6,0-5.1-1.2-7-3.3L663.5,3993.6z"/>
		<path class="st6" d="M680.7,3993.6c0.9,1.2,2.3,2.1,3.9,2.1c2,0,3.9-1.6,3.9-3.8c0-2.2-1.8-3.8-4.1-3.8c-0.8,0-1.7,0.2-2.5,0.6
			v-2.4l3.9-4.7h-7v-3.6h12.7v2.4l-3.8,4.7c2.9,1.1,4.9,3.6,4.9,6.8c0,4.4-3.5,7.4-7.8,7.4c-2.6,0-5.1-1.2-7-3.3L680.7,3993.6z"/>
		<path class="st6" d="M702.2,3994.4l-3.6,8.8h-2.8l2.2-8.8H702.2z"/>
		<path class="st6" d="M718.3,3978l-4,6.7h0.3c4,0,7.4,3,7.4,7.2c0,4.1-3.4,7.4-7.5,7.4c-3.9,0-7.7-2.8-7.7-7.2c0-2.1,1-3.9,2.1-5.8
			l4.9-8.3H718.3z M710.7,3992.1c0,2,1.7,3.6,3.7,3.6c2.1,0,3.5-1.7,3.5-3.7s-1.5-3.8-3.7-3.8c-0.8,0-1.5,0.2-2.2,0.5
			C711.4,3989.6,710.7,3990.7,710.7,3992.1z"/>
	</g>
	<g class="st0">
		<path class="st6" d="M1029.3,4061.6c0.9-2.9,3.5-4.9,6.6-4.9c3.6,0,6.7,2.7,6.7,6.5c0,2.5-1.3,4.4-2.7,6l-4.5,5.2h7.3v3.6h-13.6
			v-2.4l7.4-8.4c1.6-1.8,2.1-3,2.1-4.1c0-1.5-1.1-2.8-2.7-2.8c-1.4,0-2.4,1-2.8,2.4L1029.3,4061.6z"/>
		<path class="st6" d="M1058.4,4057v12.6h3.5v3.6h-3.5v4.8h-4v-4.8h-9.8v-2.4l10.9-13.8H1058.4z M1054.4,4069.6v-4.9l-3.9,4.9
			H1054.4z"/>
		<path class="st6" d="M1069.8,4073.4l-3.6,8.8h-2.8l2.2-8.8H1069.8z"/>
		<path class="st6" d="M1086,4057l-4,6.7h0.3c4,0,7.4,3,7.4,7.2c0,4.1-3.4,7.4-7.5,7.4c-3.9,0-7.7-2.8-7.7-7.2c0-2.1,1-3.9,2.1-5.8
			l4.9-8.3H1086z M1078.4,4071.1c0,2,1.7,3.6,3.7,3.6c2.1,0,3.5-1.7,3.5-3.7s-1.5-3.8-3.8-3.8c-0.8,0-1.5,0.2-2.2,0.5
			C1079.1,4068.6,1078.4,4069.7,1078.4,4071.1z"/>
	</g>
	<g class="st0">
		<path class="st6" d="M1396.3,4038.6c0.9-2.9,3.5-4.9,6.6-4.9c3.6,0,6.7,2.7,6.7,6.5c0,2.5-1.3,4.4-2.7,6l-4.5,5.2h7.3v3.6h-13.6
			v-2.4l7.4-8.4c1.6-1.8,2.1-3,2.1-4.1c0-1.5-1.1-2.8-2.7-2.8c-1.4,0-2.4,1-2.8,2.4L1396.3,4038.6z"/>
		<path class="st6" d="M1423.6,4034l-4,6.7h0.3c4,0,7.3,3,7.3,7.2c0,4.1-3.4,7.4-7.5,7.4c-3.9,0-7.7-2.8-7.7-7.2
			c0-2.1,1-3.9,2.1-5.8l5-8.3H1423.6z M1416,4048.1c0,2,1.7,3.6,3.7,3.6c2.1,0,3.5-1.7,3.5-3.7s-1.5-3.8-3.8-3.8
			c-0.8,0-1.5,0.2-2.2,0.5C1416.7,4045.6,1416,4046.7,1416,4048.1z"/>
		<path class="st6" d="M1436.4,4050.4l-3.6,8.8h-2.8l2.2-8.8H1436.4z"/>
		<path class="st6" d="M1441.3,4034h13.8v2.4l-9,18.6h-4.3l8.5-17.4h-9V4034z"/>
	</g>
	<path id="Trazado_2831" class="st7" d="M505.4,3989.6H651"/>
	<path id="Trazado_2832" class="st7" d="M872.2,4068.6h145.6"/>
	<path id="Trazado_2833" class="st7" d="M1240,4046.6h145.6"/>
	<g id="Grupo_2137" transform="translate(0 70)">
		<line id="Línea_508" class="st7" x1="955.5" y1="4347.2" x2="1017.5" y2="4347.2"/>
		<g id="Trazado_2768" transform="translate(707 4323)">
			<path class="st1" d="M20,38.5c-4.9,0-9.6-1.9-13.1-5.4C3.4,29.6,1.5,24.9,1.5,20s1.9-9.6,5.4-13.1S15.1,1.5,20,1.5
				s9.6,1.9,13.1,5.4c3.5,3.5,5.4,8.1,5.4,13.1s-1.9,9.6-5.4,13.1C29.6,36.6,24.9,38.5,20,38.5z"/>
			<path class="st8" d="M20,3c-4.5,0-8.8,1.8-12,5c-3.2,3.2-5,7.5-5,12s1.8,8.8,5,12c3.2,3.2,7.5,5,12,5s8.8-1.8,12-5
				c3.2-3.2,5-7.5,5-12s-1.8-8.8-5-12C28.8,4.8,24.5,3,20,3 M20,0c11,0,20,9,20,20s-9,20-20,20S0,31,0,20S9,0,20,0z"/>
		</g>
		<g class="st0">
			<path class="st9" d="M1038.8,4344.8v6.2h-2v-14h5.3c1.4,0,2.2,0.3,2.9,0.9c0.8,0.7,1.4,1.8,1.4,3s-0.5,2.3-1.4,3
				c-0.7,0.6-1.6,0.9-2.9,0.9H1038.8z M1042,4342.9c1,0,1.5-0.2,1.8-0.6c0.3-0.4,0.6-0.8,0.6-1.4s-0.2-1-0.6-1.4
				c-0.4-0.4-0.9-0.6-1.8-0.6h-3.2v4H1042z"/>
			<path class="st9" d="M1053.9,4343.3c-0.2-0.1-0.4-0.1-0.7-0.1c-1,0-2,0.7-2.5,1.6v6.2h-1.9v-9.4h1.8v1.1c0.5-0.6,1.4-1.3,2.8-1.3
				c0.2,0,0.5,0,0.7,0.1L1053.9,4343.3z"/>
			<path class="st9" d="M1060.1,4341.4c2.8,0,4.9,2.1,4.9,4.9s-2.1,4.9-4.9,4.9c-2.8,0-4.9-2.1-4.9-4.9S1057.3,4341.4,1060.1,4341.4
				z M1060.1,4349.4c1.7,0,3-1.4,3-3.1c0-1.7-1.2-3.1-3-3.1s-3,1.4-3,3.1C1057.1,4348,1058.3,4349.4,1060.1,4349.4z"/>
			<path class="st9" d="M1069.4,4341.6v0.9c0.4-0.4,1.5-1.1,2.8-1.1c1.4,0,2.5,0.6,3.3,1.6c0.9-0.9,1.9-1.6,3.6-1.6
				c1.3,0,2.6,0.6,3.3,1.6c0.6,0.7,0.9,1.6,0.9,3.2v4.8h-1.9v-5.1c0-1-0.2-1.5-0.5-1.9c-0.4-0.5-1.1-0.8-1.8-0.8
				c-1.4,0-2.2,0.7-2.9,1.3c0.1,0.5,0.2,1,0.2,1.7v4.8h-1.9v-5.1c0-1-0.2-1.5-0.5-1.9c-0.4-0.5-1.1-0.8-1.8-0.8
				c-1.2,0-2.1,0.7-2.6,1.3v6.5h-1.9v-9.4H1069.4z"/>
			<path class="st9" d="M1087.5,4346.7c0.1,1.6,1.4,2.8,3,2.8c1.4,0,2.2-0.7,2.7-1.3l1.2,1.2c-0.7,0.9-2,1.8-4,1.8
				c-2.7,0-4.9-2.1-4.9-4.9s1.9-4.9,4.6-4.9c2.6,0,4.5,2.1,4.5,4.9c0,0.1,0,0.2,0,0.4H1087.5z M1087.6,4345.1h5.1
				c-0.3-1.2-1.4-2-2.5-2C1089,4343.1,1087.9,4343.9,1087.6,4345.1z"/>
			<path class="st9" d="M1104.2,4350.1c-0.8,0.7-1.8,1.1-2.9,1.1c-0.8,0-1.7-0.2-2.4-0.6c-1.4-0.8-2.4-2.4-2.4-4.3
				c0-1.9,1-3.5,2.4-4.3c0.6-0.4,1.4-0.6,2.3-0.6c1,0,2,0.3,2.9,1v-5.6h1.9v14.2h-1.8V4350.1z M1104.1,4344.5
				c-0.6-0.8-1.5-1.3-2.7-1.3c-1.8,0-3,1.5-3,3.1c0,1.7,1.3,3.1,3.1,3.1c1,0,1.9-0.5,2.6-1.3V4344.5z"/>
			<path class="st9" d="M1110.4,4337c0.7,0,1.3,0.6,1.3,1.3s-0.6,1.2-1.3,1.2c-0.7,0-1.2-0.5-1.2-1.2S1109.7,4337,1110.4,4337z
				 M1109.4,4341.6h1.9v9.4h-1.9V4341.6z"/>
			<path class="st9" d="M1118.8,4341.4c2.8,0,4.9,2.1,4.9,4.9s-2.1,4.9-4.9,4.9c-2.8,0-4.9-2.1-4.9-4.9S1116,4341.4,1118.8,4341.4z
				 M1118.8,4349.4c1.7,0,3-1.4,3-3.1c0-1.7-1.2-3.1-3-3.1s-3,1.4-3,3.1C1115.8,4348,1117,4349.4,1118.8,4349.4z"/>
			<path class="st9" d="M1133.5,4355.8h-1.9v-14.2h1.8v0.9c0.9-0.7,1.9-1.1,2.9-1.1c0.9,0,1.7,0.2,2.3,0.6c1.4,0.8,2.4,2.4,2.4,4.3
				c0,1.9-1,3.4-2.4,4.3c-0.6,0.4-1.5,0.6-2.4,0.6c-1.1,0-2.1-0.4-2.8-1V4355.8z M1133.5,4348.1c0.6,0.9,1.6,1.3,2.6,1.3
				c1.8,0,3.1-1.4,3.1-3.1c0-1.6-1.2-3.1-3-3.1c-1.1,0-2.1,0.6-2.7,1.3V4348.1z"/>
			<path class="st9" d="M1147.8,4341.4c2.8,0,4.9,2.1,4.9,4.9s-2.1,4.9-4.9,4.9c-2.8,0-4.9-2.1-4.9-4.9S1145,4341.4,1147.8,4341.4z
				 M1147.8,4349.4c1.7,0,3-1.4,3-3.1c0-1.7-1.2-3.1-3-3.1s-3,1.4-3,3.1C1144.8,4348,1146.1,4349.4,1147.8,4349.4z"/>
			<path class="st9" d="M1160.4,4343.3c-0.2-0.1-0.4-0.1-0.7-0.1c-1,0-2,0.7-2.5,1.6v6.2h-1.9v-9.4h1.8v1.1c0.5-0.6,1.4-1.3,2.8-1.3
				c0.2,0,0.5,0,0.7,0.1L1160.4,4343.3z"/>
			<path class="st9" d="M1176.6,4349c-0.8,1.3-2.5,2.2-4.2,2.2c-2.9,0-5-2.1-5-4.9c0-2.8,2.1-4.9,4.9-4.9c1.6,0,3.1,0.8,4,2
				l-1.4,1.2c-0.5-0.7-1.4-1.4-2.6-1.4c-1.7,0-3,1.3-3,3.1c0,1.8,1.3,3.1,3.1,3.1c1.2,0,2.1-0.7,2.7-1.5L1176.6,4349z"/>
			<path class="st9" d="M1185.6,4350.1c-0.8,0.7-1.8,1.1-2.9,1.1c-0.8,0-1.7-0.2-2.4-0.6c-1.4-0.8-2.4-2.4-2.4-4.3
				c0-1.9,1-3.5,2.4-4.3c0.6-0.4,1.4-0.6,2.3-0.6c1.1,0,2.1,0.3,2.9,1.1v-0.9h1.8v9.4h-1.8V4350.1z M1185.6,4344.5
				c-0.6-0.8-1.5-1.3-2.7-1.3c-1.8,0-3,1.5-3,3.1c0,1.7,1.3,3.1,3.1,3.1c1,0,1.9-0.5,2.6-1.3V4344.5z"/>
			<path class="st9" d="M1196.7,4351c-0.4,0.1-0.9,0.2-1.5,0.2c-1.2,0-2.1-0.4-2.7-1.1c-0.6-0.6-0.8-1.5-0.8-2.5v-4.3h-2.4v-1.7h2.4
				v-2.6h1.9v2.6h3v1.7h-3v4.4c0,0.5,0,0.9,0.3,1.2c0.3,0.3,0.8,0.5,1.3,0.5c0.3,0,0.8,0,1-0.1L1196.7,4351z"/>
			<path class="st9" d="M1200,4346.7c0.1,1.6,1.4,2.8,3,2.8c1.4,0,2.2-0.7,2.7-1.3l1.2,1.2c-0.7,0.9-2,1.8-4,1.8
				c-2.7,0-4.9-2.1-4.9-4.9s1.9-4.9,4.6-4.9c2.6,0,4.5,2.1,4.5,4.9c0,0.1,0,0.2,0,0.4H1200z M1200.2,4345.1h5.1
				c-0.3-1.2-1.4-2-2.5-2C1201.6,4343.1,1200.5,4343.9,1200.2,4345.1z"/>
			<path class="st9" d="M1213.8,4351.2c-0.8,0-1.7-0.2-2.4-0.6c-1.4-0.8-2.4-2.4-2.4-4.3c0-1.9,1-3.5,2.4-4.3
				c0.6-0.4,1.4-0.6,2.3-0.6c1.1,0,2.1,0.3,2.9,1.1v-0.9h1.8v9c0,1.4-0.2,2.3-0.6,3.1c-0.8,1.5-2.2,2.3-4.1,2.3
				c-2.4,0-4-1.2-4.6-2.2l1.4-1.3c0.7,0.9,1.6,1.7,3.1,1.7c1,0,1.8-0.4,2.3-1.1c0.3-0.5,0.5-1.2,0.5-2.4v-0.5
				C1215.9,4350.8,1214.9,4351.2,1213.8,4351.2z M1216.7,4344.5c-0.6-0.8-1.5-1.3-2.7-1.3c-1.8,0-3,1.5-3,3.1c0,1.7,1.3,3.1,3.1,3.1
				c1,0,1.9-0.5,2.6-1.3V4344.5z"/>
			<path class="st9" d="M1226,4341.4c2.8,0,4.9,2.1,4.9,4.9s-2.1,4.9-4.9,4.9s-4.9-2.1-4.9-4.9S1223.2,4341.4,1226,4341.4z
				 M1226,4349.4c1.7,0,3-1.4,3-3.1c0-1.7-1.2-3.1-3-3.1s-3,1.4-3,3.1C1223.1,4348,1224.3,4349.4,1226,4349.4z"/>
			<path class="st9" d="M1238.7,4343.3c-0.2-0.1-0.4-0.1-0.7-0.1c-1,0-2,0.7-2.5,1.6v6.2h-1.9v-9.4h1.8v1.1c0.5-0.6,1.4-1.3,2.8-1.3
				c0.2,0,0.5,0,0.7,0.1L1238.7,4343.3z"/>
			<path class="st9" d="M1241.2,4340l1.3-3h2.1l-2.1,3H1241.2z M1241.2,4341.6h1.9v9.4h-1.9V4341.6z"/>
			<path class="st9" d="M1253.3,4350.1c-0.8,0.7-1.8,1.1-2.9,1.1c-0.8,0-1.7-0.2-2.4-0.6c-1.4-0.8-2.4-2.4-2.4-4.3
				c0-1.9,1-3.5,2.4-4.3c0.6-0.4,1.4-0.6,2.3-0.6c1.1,0,2.1,0.3,2.9,1.1v-0.9h1.8v9.4h-1.8V4350.1z M1253.3,4344.5
				c-0.6-0.8-1.5-1.3-2.7-1.3c-1.8,0-3,1.5-3,3.1c0,1.7,1.3,3.1,3.1,3.1c1,0,1.9-0.5,2.6-1.3V4344.5z"/>
		</g>
		<g class="st0">
			<path class="st9" d="M756,4347.5c0.8,1,2,1.8,3.4,1.8c1.3,0,2.4-0.8,2.4-2.1c0-2.1-3-2.4-4.8-3.6c-1-0.7-1.8-1.6-1.8-3.1
				c0-2,1.8-3.7,4.2-3.7c1.8,0,3,0.8,3.8,1.4l-1.2,1.5c-0.8-0.6-1.6-1-2.5-1c-1.2,0-2.3,0.7-2.3,1.9c0,1.8,3,2.2,4.8,3.4
				c0.9,0.6,1.8,1.6,1.8,3.2c0,2.5-1.9,4.1-4.3,4.1c-1.9,0-3.7-0.8-4.9-2.3L756,4347.5z"/>
			<path class="st9" d="M767.4,4346.7c0.1,1.6,1.4,2.8,3,2.8c1.4,0,2.2-0.7,2.7-1.3l1.2,1.2c-0.7,0.9-2,1.8-4,1.8
				c-2.7,0-4.9-2.1-4.9-4.9s1.9-4.9,4.6-4.9c2.6,0,4.5,2.1,4.5,4.9c0,0.1,0,0.2,0,0.4H767.4z M767.5,4345.1h5.1
				c-0.3-1.2-1.4-2-2.5-2C769,4343.1,767.9,4343.9,767.5,4345.1z"/>
			<path class="st9" d="M782.4,4343.3c-0.2-0.1-0.4-0.1-0.7-0.1c-1,0-2,0.7-2.5,1.6v6.2h-1.9v-9.4h1.8v1.1c0.5-0.6,1.4-1.3,2.8-1.3
				c0.2,0,0.5,0,0.7,0.1L782.4,4343.3z"/>
			<path class="st9" d="M784.2,4341.6h2l2.8,6.4l2.8-6.4h2l-4.1,9.4h-1.3L784.2,4341.6z"/>
			<path class="st9" d="M796.6,4337c0.7,0,1.3,0.6,1.3,1.3s-0.6,1.2-1.3,1.2s-1.2-0.5-1.2-1.2S795.9,4337,796.6,4337z M795.6,4341.6
				h1.9v9.4h-1.9V4341.6z"/>
			<path class="st9" d="M809.3,4349c-0.8,1.3-2.5,2.2-4.2,2.2c-2.9,0-5-2.1-5-4.9c0-2.8,2.1-4.9,4.9-4.9c1.6,0,3.1,0.8,4,2l-1.4,1.2
				c-0.5-0.7-1.4-1.4-2.6-1.4c-1.7,0-3,1.3-3,3.1c0,1.8,1.3,3.1,3.1,3.1c1.2,0,2.1-0.7,2.7-1.5L809.3,4349z"/>
			<path class="st9" d="M812.5,4337c0.7,0,1.3,0.6,1.3,1.3s-0.6,1.2-1.3,1.2s-1.2-0.5-1.2-1.2S811.8,4337,812.5,4337z M811.5,4341.6
				h1.9v9.4h-1.9V4341.6z"/>
			<path class="st9" d="M820.9,4341.4c2.8,0,4.9,2.1,4.9,4.9s-2.1,4.9-4.9,4.9s-4.9-2.1-4.9-4.9S818.1,4341.4,820.9,4341.4z
				 M820.9,4349.4c1.7,0,3-1.4,3-3.1c0-1.7-1.2-3.1-3-3.1s-3,1.4-3,3.1C817.9,4348,819.1,4349.4,820.9,4349.4z"/>
			<path class="st9" d="M828.4,4348.5c0.9,0.7,1.8,1,2.8,1c0.8,0,1.6-0.4,1.6-1.2c0-1.1-1.6-1.1-2.9-1.6c-1.1-0.4-2.2-1.1-2.2-2.4
				c0-2,1.8-2.9,3.5-2.9c1.4,0,2.4,0.4,3.1,1l-1,1.4c-0.6-0.4-1.3-0.7-2-0.7c-0.9,0-1.7,0.4-1.7,1.2c0,0.6,0.7,0.9,1.7,1.1
				c1.5,0.4,3.4,1,3.4,3c0,1.8-1.7,2.9-3.5,2.9c-1.5,0-2.8-0.5-3.8-1.3L828.4,4348.5z"/>
			<path class="st9" d="M844.7,4355.8h-1.9v-14.2h1.8v0.9c0.9-0.7,1.9-1.1,2.9-1.1c0.9,0,1.7,0.2,2.3,0.6c1.4,0.8,2.4,2.4,2.4,4.3
				c0,1.9-1,3.4-2.4,4.3c-0.6,0.4-1.5,0.6-2.4,0.6c-1.1,0-2.1-0.4-2.8-1V4355.8z M844.7,4348.1c0.6,0.9,1.6,1.3,2.6,1.3
				c1.8,0,3.1-1.4,3.1-3.1c0-1.6-1.2-3.1-3-3.1c-1.1,0-2.1,0.6-2.7,1.3V4348.1z"/>
			<path class="st9" d="M855.6,4349.6c-0.6-0.7-0.9-1.6-0.9-3.2v-4.8h1.9v5.1c0,1,0.2,1.5,0.5,1.9c0.4,0.5,1.1,0.8,1.8,0.8
				c1.2,0,2.1-0.7,2.6-1.3v-6.5h1.9v9.4h-1.8v-0.9c-0.4,0.4-1.5,1.1-2.8,1.1C857.6,4351.2,856.4,4350.6,855.6,4349.6z M858.4,4340
				l1.3-3h2.1l-2.1,3H858.4z"/>
			<path class="st9" d="M868.8,4351h-1.8v-14.2h1.9v5.6c0.8-0.7,1.9-1,2.9-1c0.9,0,1.7,0.2,2.3,0.6c1.4,0.8,2.4,2.4,2.4,4.3
				c0,1.9-1,3.4-2.4,4.3c-0.6,0.4-1.5,0.6-2.4,0.6c-1.1,0-2.1-0.4-2.9-1.1V4351z M868.8,4348.1c0.6,0.9,1.6,1.3,2.6,1.3
				c1.8,0,3.1-1.4,3.1-3.1c0-1.6-1.2-3.1-3-3.1c-1.1,0-2.1,0.6-2.7,1.3V4348.1z"/>
			<path class="st9" d="M879,4336.8h1.9v14.2H879V4336.8z"/>
			<path class="st9" d="M885.3,4337c0.7,0,1.3,0.6,1.3,1.3s-0.6,1.2-1.3,1.2s-1.2-0.5-1.2-1.2S884.6,4337,885.3,4337z M884.3,4341.6
				h1.9v9.4h-1.9V4341.6z"/>
			<path class="st9" d="M898,4349c-0.8,1.3-2.5,2.2-4.2,2.2c-2.9,0-5-2.1-5-4.9c0-2.8,2.1-4.9,4.9-4.9c1.6,0,3.1,0.8,4,2l-1.4,1.2
				c-0.5-0.7-1.4-1.4-2.6-1.4c-1.7,0-3,1.3-3,3.1c0,1.8,1.3,3.1,3.1,3.1c1.2,0,2.1-0.7,2.7-1.5L898,4349z"/>
			<path class="st9" d="M904.3,4341.4c2.8,0,4.9,2.1,4.9,4.9s-2.1,4.9-4.9,4.9c-2.8,0-4.9-2.1-4.9-4.9S901.5,4341.4,904.3,4341.4z
				 M904.3,4349.4c1.7,0,3-1.4,3-3.1c0-1.7-1.2-3.1-3-3.1s-3,1.4-3,3.1C901.3,4348,902.6,4349.4,904.3,4349.4z"/>
			<path class="st9" d="M911.8,4348.5c0.9,0.7,1.8,1,2.8,1c0.8,0,1.6-0.4,1.6-1.2c0-1.1-1.6-1.1-2.9-1.6c-1.1-0.4-2.2-1.1-2.2-2.4
				c0-2,1.8-2.9,3.5-2.9c1.4,0,2.4,0.4,3.1,1l-1,1.4c-0.6-0.4-1.3-0.7-2-0.7c-0.9,0-1.7,0.4-1.7,1.2c0,0.6,0.7,0.9,1.7,1.1
				c1.5,0.4,3.4,1,3.4,3c0,1.8-1.7,2.9-3.5,2.9c-1.5,0-2.8-0.5-3.8-1.3L911.8,4348.5z"/>
		</g>
	</g>
</g>
</svg>
