<svg xmlns="http://www.w3.org/2000/svg" width="238.221" height="466.065" viewBox="0 0 238.221 466.065">
  <g id="Grupo_2431" data-name="Grupo 2431" transform="translate(-72.779 -1573.935)">
    <g id="Grupo_2380" data-name="Grupo 2380" transform="translate(0 50)">
      <line id="Línea_508" data-name="Línea 508" x2="62" transform="translate(89.367 1982.235)" fill="none" stroke="#ff7043" stroke-linecap="square" stroke-width="3" stroke-dasharray="6 8"/>
      <g id="Trazado_2768" data-name="Trazado 2768" transform="translate(128 1930)" fill="#333" style="mix-blend-mode: multiply;isolation: isolate">
        <path d="M 15 28.5 C 11.39402008056641 28.5 8.003870010375977 27.09575080871582 5.454060077667236 24.54594039916992 C 2.904249906539917 21.99612998962402 1.5 18.60597991943359 1.5 15 C 1.5 11.39402008056641 2.904249906539917 8.003870010375977 5.454060077667236 5.454060077667236 C 8.003870010375977 2.904249906539917 11.39402008056641 1.5 15 1.5 C 18.60597991943359 1.5 21.99612998962402 2.904249906539917 24.54594039916992 5.454060077667236 C 27.09575080871582 8.003870010375977 28.5 11.39402008056641 28.5 15 C 28.5 18.60597991943359 27.09575080871582 21.99612998962402 24.54594039916992 24.54594039916992 C 21.99612998962402 27.09575080871582 18.60597991943359 28.5 15 28.5 Z" stroke="none"/>
        <path d="M 15 3 C 11.79467964172363 3 8.781219482421875 4.248220443725586 6.514720916748047 6.514720916748047 C 4.248220443725586 8.781219482421875 3 11.79467964172363 3 15 C 3 18.20532035827637 4.248220443725586 21.21878051757813 6.514720916748047 23.48527908325195 C 8.781219482421875 25.75177955627441 11.79467964172363 27 15 27 C 18.20532035827637 27 21.21878051757813 25.75177955627441 23.48527908325195 23.48527908325195 C 25.75177955627441 21.21878051757813 27 18.20532035827637 27 15 C 27 11.79467964172363 25.75177955627441 8.781219482421875 23.48527908325195 6.514720916748047 C 21.21878051757813 4.248220443725586 18.20532035827637 3 15 3 M 15 0 C 23.28426933288574 0 30 6.715730667114258 30 15 C 30 23.28426933288574 23.28426933288574 30 15 30 C 6.715730667114258 30 0 23.28426933288574 0 15 C 0 6.715730667114258 6.715730667114258 0 15 0 Z" stroke="none" fill="#fff"/>
      </g>
      <text id="Promedio_por_categoría" data-name="Promedio por categoría" transform="translate(164 1986)" fill="#aaa" font-size="14" font-family="SegoeUI, Segoe UI"><tspan x="0" y="0">Promedio por categoría</tspan></text>
      <text id="Servicios_públicos" data-name="Servicios públicos" transform="translate(164 1950)" fill="#aaa" font-size="14" font-family="SegoeUI, Segoe UI"><tspan x="0" y="0">Servicios públicos</tspan></text>
    </g>
    <g id="Grupo_2377" data-name="Grupo 2377" transform="translate(18104.299 -1967.016)">
      <path id="Trazado_2866" data-name="Trazado 2866" d="M45.5,179.5H199.8" transform="translate(-18010.695 3503.819)" fill="none" stroke="#989898" stroke-miterlimit="10" stroke-width="1"/>
      <text id="_100" data-name="100" transform="translate(-18013.943 3541.086)" fill="#333" font-size="18" font-family="SegoeUI-Bold, Segoe UI" font-weight="700"><tspan x="7.548" y="19">100</tspan></text>
      <text id="_75" data-name="75" transform="translate(-18013.943 3609.456)" fill="#333" font-size="18" font-family="SegoeUI-Bold, Segoe UI" font-weight="700"><tspan x="17.902" y="19">75</tspan></text>
      <text id="_50_" data-name="50
" transform="translate(-18013.943 3680.007)" fill="#333" font-size="18" font-family="SegoeUI-Bold, Segoe UI" font-weight="700"><tspan x="17.902" y="19">50</tspan></text>
      <text id="_25" data-name="25" transform="translate(-18013.943 3750.557)" fill="#333" font-size="18" font-family="SegoeUI-Bold, Segoe UI" font-weight="700"><tspan x="17.902" y="19">25</tspan></text>
      <text id="_0" data-name="0" transform="translate(-18013.943 3815.773)" fill="#333" font-size="18" font-family="SegoeUI-Bold, Segoe UI" font-weight="700"><tspan x="28.255" y="19">0</tspan></text>
      <path id="Trazado_2871" data-name="Trazado 2871" d="M45.5,332.5H199.8" transform="translate(-18010.695 3489.45)" fill="none" stroke="#717171" stroke-miterlimit="10" stroke-width="4"/>
      <path id="Trazado_2868" data-name="Trazado 2868" d="M45.5,255.5H199.8" transform="translate(-18010.695 3496.682)" fill="none" stroke="#989898" stroke-miterlimit="10" stroke-width="1"/>
      <path id="Trazado_2865" data-name="Trazado 2865" d="M45.5,102.5H199.8" transform="translate(-18010.695 3511.051)" fill="none" stroke="#989898" stroke-miterlimit="10" stroke-width="1"/>
      <g id="Grupo_2285" data-name="Grupo 2285" transform="translate(-17899.094 3604.986)">
        <path id="Trazado_2793" data-name="Trazado 2793" d="M186.022,100.3a7.249,7.249,0,1,1-7.249-7.249A7.248,7.248,0,0,1,186.022,100.3Z" transform="translate(-171.525 -93.047)" fill="#333"/>
      </g>
      <g id="Grupo_2286" data-name="Grupo 2286" transform="translate(-17899.094 3644.751)">
        <path id="Trazado_2794" data-name="Trazado 2794" d="M186.022,144.183a7.249,7.249,0,1,1-7.249-7.249A7.249,7.249,0,0,1,186.022,144.183Z" transform="translate(-171.525 -136.934)" fill="#333"/>
      </g>
      <g id="Grupo_2287" data-name="Grupo 2287" transform="translate(-17899.094 3648.088)">
        <path id="Trazado_2795" data-name="Trazado 2795" d="M186.022,147.866a7.249,7.249,0,1,1-7.249-7.249A7.249,7.249,0,0,1,186.022,147.866Z" transform="translate(-171.525 -140.617)" fill="#333"/>
      </g>
      <g id="Grupo_2288" data-name="Grupo 2288" transform="translate(-17899.094 3656.987)">
        <path id="Trazado_2796" data-name="Trazado 2796" d="M186.022,157.687a7.249,7.249,0,1,1-7.249-7.249A7.249,7.249,0,0,1,186.022,157.687Z" transform="translate(-171.525 -150.438)" fill="#333"/>
      </g>
      <g id="Grupo_2289" data-name="Grupo 2289" transform="translate(-17899.094 3685.628)">
        <path id="Trazado_2797" data-name="Trazado 2797" d="M186.022,189.3a7.249,7.249,0,1,1-7.249-7.249A7.248,7.248,0,0,1,186.022,189.3Z" transform="translate(-171.525 -182.048)" fill="#333"/>
      </g>
      <g id="Grupo_2290" data-name="Grupo 2290" transform="translate(-17899.094 3725.671)">
        <path id="Trazado_2798" data-name="Trazado 2798" d="M186.022,233.491a7.249,7.249,0,1,1-7.249-7.249A7.249,7.249,0,0,1,186.022,233.491Z" transform="translate(-171.525 -226.242)" fill="#333"/>
      </g>
      <g id="Grupo_2291" data-name="Grupo 2291" transform="translate(-17899.094 3735.404)">
        <path id="Trazado_2799" data-name="Trazado 2799" d="M186.022,244.233a7.249,7.249,0,1,1-7.249-7.249A7.249,7.249,0,0,1,186.022,244.233Z" transform="translate(-171.525 -236.984)" fill="#333"/>
      </g>
      <g id="Grupo_2292" data-name="Grupo 2292" transform="translate(-17899.094 3742.078)">
        <path id="Trazado_2800" data-name="Trazado 2800" d="M186.022,251.6a7.249,7.249,0,1,1-7.249-7.249A7.249,7.249,0,0,1,186.022,251.6Z" transform="translate(-171.525 -244.349)" fill="#333"/>
      </g>
      <g id="Grupo_2293" data-name="Grupo 2293" transform="translate(-17899.094 3753.201)">
        <path id="Trazado_2801" data-name="Trazado 2801" d="M186.022,263.874a7.249,7.249,0,1,1-7.249-7.249A7.249,7.249,0,0,1,186.022,263.874Z" transform="translate(-171.525 -256.625)" fill="#333"/>
      </g>
      <g id="Grupo_2294" data-name="Grupo 2294" transform="translate(-17899.094 3753.201)">
        <path id="Trazado_2802" data-name="Trazado 2802" d="M186.022,263.874a7.249,7.249,0,1,1-7.249-7.249A7.249,7.249,0,0,1,186.022,263.874Z" transform="translate(-171.525 -256.625)" fill="#333"/>
      </g>
      <g id="Grupo_2295" data-name="Grupo 2295" transform="translate(-17899.094 3760.987)">
        <path id="Trazado_2803" data-name="Trazado 2803" d="M186.022,272.467a7.249,7.249,0,1,1-7.249-7.249A7.248,7.248,0,0,1,186.022,272.467Z" transform="translate(-171.525 -265.218)" fill="#333"/>
      </g>
      <g id="Grupo_2296" data-name="Grupo 2296" transform="translate(-17899.094 3770.164)">
        <path id="Trazado_2804" data-name="Trazado 2804" d="M186.022,282.595a7.249,7.249,0,1,1-7.249-7.249A7.249,7.249,0,0,1,186.022,282.595Z" transform="translate(-171.525 -275.346)" fill="#333"/>
      </g>
      <g id="Grupo_2297" data-name="Grupo 2297" transform="translate(-17899.094 3772.388)">
        <path id="Trazado_2805" data-name="Trazado 2805" d="M186.022,285.05a7.249,7.249,0,1,1-7.249-7.249A7.249,7.249,0,0,1,186.022,285.05Z" transform="translate(-171.525 -277.801)" fill="#333"/>
      </g>
      <g id="Grupo_2298" data-name="Grupo 2298" transform="translate(-17899.094 3779.619)">
        <path id="Trazado_2806" data-name="Trazado 2806" d="M186.022,293.03a7.249,7.249,0,1,1-7.249-7.249A7.249,7.249,0,0,1,186.022,293.03Z" transform="translate(-171.525 -285.781)" fill="#333"/>
      </g>
      <g id="Grupo_2299" data-name="Grupo 2299" transform="translate(-17899.094 3782.677)">
        <path id="Trazado_2807" data-name="Trazado 2807" d="M186.022,296.4a7.249,7.249,0,1,1-7.249-7.249A7.248,7.248,0,0,1,186.022,296.4Z" transform="translate(-171.525 -289.156)" fill="#333"/>
      </g>
      <path id="Trazado_2864" data-name="Trazado 2864" d="M45.5,26.681H199.8" transform="translate(-18010.695 3518.171)" fill="none" stroke="#989898" stroke-miterlimit="10" stroke-width="1"/>
      <text id="_33_6" data-name="33,6" transform="translate(-17881.615 3702.638)" fill="#ff7043" font-size="20" font-family="SegoeUI-Bold, Segoe UI" font-weight="700"><tspan x="4.366" y="22">33,6</tspan></text>
      <path id="Trazado_2870" data-name="Trazado 2870" d="M30,0H88.55" transform="translate(-17951.121 3724.95)" fill="none" stroke="#ff7043" stroke-linecap="square" stroke-width="2" stroke-dasharray="6 6"/>
      <text id="puntaje_total_índice" data-name="puntaje total índice" transform="translate(-18031.52 3821.95) rotate(-90)" fill="#100000" font-size="12" font-family="SegoeUI, Segoe UI"><tspan x="77.933" y="13">PUNTAJE TOTAL ÍNDICE</tspan></text>
      <text id="mediana:_26_12_Desv._Est:_20_8" data-name="mediana: 26,12
Desv. Est: 20,8" transform="translate(-17939.174 3886.594)" fill="#6d6a6a" font-size="10" font-family="SegoeUI, Segoe UI"><tspan x="8.341" y="11">MEDIANA: 26,12</tspan><tspan x="11.026" y="28">DESV. EST: 20,8</tspan></text>
      <text id="Pilares_15_" data-name="Pilares (15)" transform="translate(-17928.154 3839.203)" fill="#333" font-size="14" font-family="SegoeUI-Bold, Segoe UI" font-weight="700"><tspan x="6.223" y="15">PILARES </tspan><tspan x="20.394" y="33">(15)</tspan></text>
    </g>
  </g>
</svg>
